0
SECTION
2
HEADER
9
$ACADVER
1
AC1027
9
$ACADMAINTVER
70
8
9
$DWGCODEPAGE
3
ANSI_1252
9
$LASTSAVEDBY
1
macc
9
$REQUIREDVERSIONS
160
0
9
$INSBASE
10
0.0
20
0.0
30
0.0
9
$EXTMIN
10
1.000000000000000E+20
20
1.000000000000000E+20
30
1.000000000000000E+20
9
$EXTMAX
10
-1.000000000000000E+20
20
-1.000000000000000E+20
30
-1.000000000000000E+20
9
$LIMMIN
10
0.0
20
0.0
9
$LIMMAX
10
12.0
20
9.0
9
$ORTHOMODE
70
0
9
$REGENMODE
70
1
9
$FILLMODE
70
1
9
$QTEXTMODE
70
0
9
$MIRRTEXT
70
0
9
$LTSCALE
40
1.0
9
$ATTMODE
70
1
9
$TEXTSIZE
40
0.2
9
$TRACEWID
40
0.05
9
$TEXTSTYLE
7
STANDARD
9
$CLAYER
8
0
9
$CELTYPE
6
ByLayer
9
$CECOLOR
62
256
9
$CELTSCALE
40
1.0
9
$DISPSILH
70
0
9
$DIMSCALE
40
1.0
9
$DIMASZ
40
0.18
9
$DIMEXO
40
0.0625
9
$DIMDLI
40
0.38
9
$DIMRND
40
0.0
9
$DIMDLE
40
0.0
9
$DIMEXE
40
0.18
9
$DIMTP
40
0.0
9
$DIMTM
40
0.0
9
$DIMTXT
40
0.18
9
$DIMCEN
40
0.09
9
$DIMTSZ
40
0.0
9
$DIMTOL
70
0
9
$DIMLIM
70
0
9
$DIMTIH
70
1
9
$DIMTOH
70
1
9
$DIMSE1
70
0
9
$DIMSE2
70
0
9
$DIMTAD
70
0
9
$DIMZIN
70
0
9
$DIMBLK
1

9
$DIMASO
70
1
9
$DIMSHO
70
1
9
$DIMPOST
1

9
$DIMAPOST
1

9
$DIMALT
70
0
9
$DIMALTD
70
2
9
$DIMALTF
40
25.4
9
$DIMLFAC
40
1.0
9
$DIMTOFL
70
0
9
$DIMTVP
40
0.0
9
$DIMTIX
70
0
9
$DIMSOXD
70
0
9
$DIMSAH
70
0
9
$DIMBLK1
1

9
$DIMBLK2
1

9
$DIMSTYLE
2
STANDARD
9
$DIMCLRD
70
0
9
$DIMCLRE
70
0
9
$DIMCLRT
70
0
9
$DIMTFAC
40
1.0
9
$DIMGAP
40
0.09
9
$DIMJUST
70
0
9
$DIMSD1
70
0
9
$DIMSD2
70
0
9
$DIMTOLJ
70
1
9
$DIMTZIN
70
0
9
$DIMALTZ
70
0
9
$DIMALTTZ
70
0
9
$DIMUPT
70
0
9
$DIMDEC
70
4
9
$DIMTDEC
70
4
9
$DIMALTU
70
2
9
$DIMALTTD
70
2
9
$DIMTXSTY
7
STANDARD
9
$DIMAUNIT
70
0
9
$DIMADEC
70
0
9
$DIMALTRND
40
0.0
9
$DIMAZIN
70
0
9
$DIMDSEP
70
46
9
$DIMATFIT
70
3
9
$DIMFRAC
70
0
9
$DIMLDRBLK
1

9
$DIMLUNIT
70
2
9
$DIMLWD
70
-2
9
$DIMLWE
70
-2
9
$DIMTMOVE
70
0
9
$DIMFXL
40
1.0
9
$DIMFXLON
70
0
9
$DIMJOGANG
40
0.7853981633974483
9
$DIMTFILL
70
0
9
$DIMTFILLCLR
70
0
9
$DIMARCSYM
70
0
9
$DIMLTYPE
6

9
$DIMLTEX1
6

9
$DIMLTEX2
6

9
$DIMTXTDIRECTION
70
0
9
$LUNITS
70
2
9
$LUPREC
70
4
9
$SKETCHINC
40
0.1
9
$FILLETRAD
40
0.0
9
$AUNITS
70
0
9
$AUPREC
70
0
9
$MENU
1
.
9
$ELEVATION
40
0.0
9
$PELEVATION
40
0.0
9
$THICKNESS
40
0.0
9
$LIMCHECK
70
0
9
$CHAMFERA
40
0.0
9
$CHAMFERB
40
0.0
9
$CHAMFERC
40
0.0
9
$CHAMFERD
40
0.0
9
$SKPOLY
70
0
9
$TDCREATE
40
2458312.067262384
9
$TDUCREATE
40
2458311.983929051
9
$TDUPDATE
40
2458312.961305069
9
$TDUUPDATE
40
2458312.877971736
9
$TDINDWG
40
0.0045230903
9
$TDUSRTIMER
40
0.0045219676
9
$USRTIMER
70
1
9
$ANGBASE
50
0.0
9
$ANGDIR
70
0
9
$PDMODE
70
0
9
$PDSIZE
40
0.0
9
$PLINEWID
40
0.0
9
$SPLFRAME
70
0
9
$SPLINETYPE
70
6
9
$SPLINESEGS
70
8
9
$HANDSEED
5
1058
9
$SURFTAB1
70
6
9
$SURFTAB2
70
6
9
$SURFTYPE
70
6
9
$SURFU
70
6
9
$SURFV
70
6
9
$UCSBASE
2

9
$UCSNAME
2

9
$UCSORG
10
0.0
20
0.0
30
0.0
9
$UCSXDIR
10
1.0
20
0.0
30
0.0
9
$UCSYDIR
10
0.0
20
1.0
30
0.0
9
$UCSORTHOREF
2

9
$UCSORTHOVIEW
70
0
9
$UCSORGTOP
10
0.0
20
0.0
30
0.0
9
$UCSORGBOTTOM
10
0.0
20
0.0
30
0.0
9
$UCSORGLEFT
10
0.0
20
0.0
30
0.0
9
$UCSORGRIGHT
10
0.0
20
0.0
30
0.0
9
$UCSORGFRONT
10
0.0
20
0.0
30
0.0
9
$UCSORGBACK
10
0.0
20
0.0
30
0.0
9
$PUCSBASE
2

9
$PUCSNAME
2

9
$PUCSORG
10
0.0
20
0.0
30
0.0
9
$PUCSXDIR
10
1.0
20
0.0
30
0.0
9
$PUCSYDIR
10
0.0
20
1.0
30
0.0
9
$PUCSORTHOREF
2

9
$PUCSORTHOVIEW
70
0
9
$PUCSORGTOP
10
0.0
20
0.0
30
0.0
9
$PUCSORGBOTTOM
10
0.0
20
0.0
30
0.0
9
$PUCSORGLEFT
10
0.0
20
0.0
30
0.0
9
$PUCSORGRIGHT
10
0.0
20
0.0
30
0.0
9
$PUCSORGFRONT
10
0.0
20
0.0
30
0.0
9
$PUCSORGBACK
10
0.0
20
0.0
30
0.0
9
$USERI1
70
0
9
$USERI2
70
0
9
$USERI3
70
0
9
$USERI4
70
0
9
$USERI5
70
0
9
$USERR1
40
0.0
9
$USERR2
40
0.0
9
$USERR3
40
0.0
9
$USERR4
40
0.0
9
$USERR5
40
0.0
9
$WORLDVIEW
70
1
9
$SHADEDGE
70
3
9
$SHADEDIF
70
70
9
$TILEMODE
70
1
9
$MAXACTVP
70
64
9
$PINSBASE
10
0.0
20
0.0
30
0.0
9
$PLIMCHECK
70
0
9
$PEXTMIN
10
0.0
20
0.0
30
0.0
9
$PEXTMAX
10
0.0
20
0.0
30
0.0
9
$PLIMMIN
10
0.0
20
0.0
9
$PLIMMAX
10
12.0
20
9.0
9
$UNITMODE
70
0
9
$VISRETAIN
70
1
9
$PLINEGEN
70
0
9
$PSLTSCALE
70
1
9
$TREEDEPTH
70
3020
9
$CMLSTYLE
2
Standard
9
$CMLJUST
70
0
9
$CMLSCALE
40
1.0
9
$PROXYGRAPHICS
70
1
9
$MEASUREMENT
70
0
9
$CELWEIGHT
370
-1
9
$ENDCAPS
280
0
9
$JOINSTYLE
280
0
9
$LWDISPLAY
290
0
9
$INSUNITS
70
0
9
$HYPERLINKBASE
1

9
$STYLESHEET
1

9
$XEDIT
290
1
9
$CEPSNTYPE
380
0
9
$PSTYLEMODE
290
1
9
$FINGERPRINTGUID
2
{4B4ED3CC-337F-6143-9B17-EFB0F3F01845}
9
$VERSIONGUID
2
{A4861B96-12DA-254C-ACF2-0C3CF0F63D02}
9
$EXTNAMES
290
1
9
$PSVPSCALE
40
0.0
9
$OLESTARTUP
290
0
9
$SORTENTS
280
127
9
$INDEXCTL
280
0
9
$HIDETEXT
280
0
9
$XCLIPFRAME
280
2
9
$HALOGAP
280
0
9
$OBSCOLOR
70
257
9
$OBSLTYPE
280
0
9
$INTERSECTIONDISPLAY
280
0
9
$INTERSECTIONCOLOR
70
257
9
$DIMASSOC
280
1
9
$PROJECTNAME
1

9
$CAMERADISPLAY
290
0
9
$LENSLENGTH
40
50.0
9
$CAMERAHEIGHT
40
0.0
9
$STEPSPERSEC
40
2.0
9
$STEPSIZE
40
6.0
9
$3DDWFPREC
40
2.0
9
$PSOLWIDTH
40
0.25
9
$PSOLHEIGHT
40
4.0
9
$LOFTANG1
40
1.570796326794896
9
$LOFTANG2
40
1.570796326794896
9
$LOFTMAG1
40
0.0
9
$LOFTMAG2
40
0.0
9
$LOFTPARAM
70
7
9
$LOFTNORMALS
280
1
9
$LATITUDE
40
37.795
9
$LONGITUDE
40
-122.394
9
$NORTHDIRECTION
40
0.0
9
$TIMEZONE
70
-8000
9
$LIGHTGLYPHDISPLAY
280
1
9
$TILEMODELIGHTSYNCH
280
1
9
$CMATERIAL
347
222
9
$SOLIDHIST
280
0
9
$SHOWHIST
280
1
9
$DWFFRAME
280
2
9
$DGNFRAME
280
0
9
$REALWORLDSCALE
290
1
9
$INTERFERECOLOR
62
1
9
$INTERFEREOBJVS
345
244
9
$INTERFEREVPVS
346
241
9
$CSHADOW
280
0
9
$SHADOWPLANELOCATION
40
0.0
0
ENDSEC
0
SECTION
2
CLASSES
0
CLASS
1
ACDBDICTIONARYWDFLT
2
AcDbDictionaryWithDefault
3
ObjectDBX Classes
90
0
91
1
280
0
281
0
0
CLASS
1
MATERIAL
2
AcDbMaterial
3
ObjectDBX Classes
90
1153
91
3
280
0
281
0
0
CLASS
1
VISUALSTYLE
2
AcDbVisualStyle
3
ObjectDBX Classes
90
4095
91
24
280
0
281
0
0
CLASS
1
SCALE
2
AcDbScale
3
ObjectDBX Classes
90
1153
91
17
280
0
281
0
0
CLASS
1
TABLESTYLE
2
AcDbTableStyle
3
ObjectDBX Classes
90
4095
91
1
280
0
281
0
0
CLASS
1
MLEADERSTYLE
2
AcDbMLeaderStyle
3
ACDB_MLEADERSTYLE_CLASS
90
4095
91
1
280
0
281
0
0
CLASS
1
ACDBSECTIONVIEWSTYLE
2
AcDbSectionViewStyle
3
ObjectDBX Classes
90
1025
91
1
280
0
281
0
0
CLASS
1
ACDBDETAILVIEWSTYLE
2
AcDbDetailViewStyle
3
ObjectDBX Classes
90
1025
91
1
280
0
281
0
0
CLASS
1
DICTIONARYVAR
2
AcDbDictionaryVar
3
ObjectDBX Classes
90
0
91
9
280
0
281
0
0
CLASS
1
CELLSTYLEMAP
2
AcDbCellStyleMap
3
ObjectDBX Classes
90
1152
91
2
280
0
281
0
0
ENDSEC
0
SECTION
2
TABLES
0
TABLE
2
VPORT
5
219
330
0
100
AcDbSymbolTable
70
1
0
VPORT
5
285
330
219
100
AcDbSymbolTableRecord
100
AcDbViewportTableRecord
2
*ACTIVE
70
0
10
0.0
20
0.0
11
1.0
21
1.0
12
60.85393284500712
22
1.602311788490737
13
0.0
23
0.0
14
0.5
24
0.5
15
0.5
25
0.5
16
0.0
26
0.0
36
1.0
17
0.0
27
0.0
37
0.0
40
135.7601553851812
41
1.367970660146699
42
50.0
43
0.0
44
0.0
50
0.0
51
0.0
71
0
72
1000
73
1
74
3
75
0
76
1
77
0
78
0
281
0
65
1
110
0.0
120
0.0
130
0.0
111
1.0
121
0.0
131
0.0
112
0.0
122
1.0
132
0.0
79
0
146
0.0
348
240
60
3
61
5
292
1
282
0
141
0.0
142
0.0
63
250
421
3355443
1001
ACAD_NAV_VCDISPLAY
1070
3
0
ENDTAB
0
TABLE
2
LTYPE
5
216
330
0
100
AcDbSymbolTable
70
2
0
LTYPE
5
26B
330
216
100
AcDbSymbolTableRecord
100
AcDbLinetypeTableRecord
2
ByBlock
70
0
3

72
65
73
0
40
0.0
0
LTYPE
5
26C
330
216
100
AcDbSymbolTableRecord
100
AcDbLinetypeTableRecord
2
ByLayer
70
0
3

72
65
73
0
40
0.0
0
LTYPE
5
26D
330
216
100
AcDbSymbolTableRecord
100
AcDbLinetypeTableRecord
2
CONTINUOUS
70
0
3
Solid line
72
65
73
0
40
0.0
0
LTYPE
5
103D
330
216
100
AcDbSymbolTableRecord
100
AcDbLinetypeTableRecord
2
DOTTED
70
0
3
Dotted . . . . . . . . . . . . . . . . . . . .
72
65
73
2
40
3.0
49
0.0
74
0
49
-3.0
74
0
0
ENDTAB
0
TABLE
2
LAYER
5
213
102
{ACAD_XDICTIONARY
360
297
102
}
330
0
100
AcDbSymbolTable
70
4
0
LAYER
5
265
102
{ACAD_XDICTIONARY
360
292
102
}
330
213
100
AcDbSymbolTableRecord
100
AcDbLayerTableRecord
2
0
70
0
62
7
6
CONTINUOUS
370
-3
390
220
347
232
348
0
0
LAYER
5
2FB
330
213
100
AcDbSymbolTableRecord
100
AcDbLayerTableRecord
2
gear
70
0
62
7
6
CONTINUOUS
370
-3
390
220
347
232
348
0
1001
AcAecLayerStandard
1000

1000

1001
AcCmTransparency
1071
0
0
LAYER
5
2FE
330
213
100
AcDbSymbolTableRecord
100
AcDbLayerTableRecord
2
gear_texts
70
0
62
7
6
CONTINUOUS
370
-3
390
220
347
232
348
0
1001
AcAecLayerStandard
1000

1000

1001
AcCmTransparency
1071
0
0
LAYER
5
2FF
330
213
100
AcDbSymbolTableRecord
100
AcDbLayerTableRecord
2
gear_guides
70
0
62
5
6
CONTINUOUS
370
-3
390
220
347
232
348
0
1001
AcAecLayerStandard
1000

1000

1001
AcCmTransparency
1071
0
0
ENDTAB
0
TABLE
2
STYLE
5
214
330
0
100
AcDbSymbolTable
70
3
0
STYLE
5
266
330
214
100
AcDbSymbolTableRecord
100
AcDbTextStyleTableRecord
2
STANDARD
70
0
40
0.0
41
1.0
50
0.0
71
0
42
0.2
3
txt
4

0
STYLE
5
26A
330
214
100
AcDbSymbolTableRecord
100
AcDbTextStyleTableRecord
2
ANNOTATIVE
70
0
40
0.0
41
1.0
50
0.0
71
0
42
0.2
3
txt
4

1001
ACADANNOTATIVE
1000
AnnotativeData
1002
{
1070
1
1070
1
1002
}
0
STYLE
5
301
330
214
100
AcDbSymbolTableRecord
100
AcDbTextStyleTableRecord
2

70
1
40
0.0
41
1.0
50
0.0
71
0
42
0.2
3
ltypeshp.shx
4

0
ENDTAB
0
TABLE
2
VIEW
5
217
330
0
100
AcDbSymbolTable
70
1
0
ENDTAB
0
TABLE
2
UCS
5
218
330
0
100
AcDbSymbolTable
70
0
0
ENDTAB
0
TABLE
2
APPID
5
21A
330
0
100
AcDbSymbolTable
70
10
0
APPID
5
267
330
21A
100
AcDbSymbolTableRecord
100
AcDbRegAppTableRecord
2
ACAD
70
0
0
APPID
5
26E
330
21A
100
AcDbSymbolTableRecord
100
AcDbRegAppTableRecord
2
ACADANNOTATIVE
70
0
0
APPID
5
286
330
21A
100
AcDbSymbolTableRecord
100
AcDbRegAppTableRecord
2
ACADANNOPO
70
0
0
APPID
5
287
330
21A
100
AcDbSymbolTableRecord
100
AcDbRegAppTableRecord
2
ACAD_DSTYLE_DIMJAG
70
0
0
APPID
5
288
330
21A
100
AcDbSymbolTableRecord
100
AcDbRegAppTableRecord
2
ACAD_DSTYLE_DIMTALN
70
0
0
APPID
5
289
330
21A
100
AcDbSymbolTableRecord
100
AcDbRegAppTableRecord
2
ACAD_MLEADERVER
70
0
0
APPID
5
28A
330
21A
100
AcDbSymbolTableRecord
100
AcDbRegAppTableRecord
2
ACAD_NAV_VCDISPLAY
70
0
0
APPID
5
2E7
330
21A
100
AcDbSymbolTableRecord
100
AcDbRegAppTableRecord
2
ACAD_EXEMPT_FROM_CAD_STANDARDS
70
0
0
APPID
5
2FC
330
21A
100
AcDbSymbolTableRecord
100
AcDbRegAppTableRecord
2
AcAecLayerStandard
70
0
0
APPID
5
2FD
330
21A
100
AcDbSymbolTableRecord
100
AcDbRegAppTableRecord
2
AcCmTransparency
70
0
0
ENDTAB
0
TABLE
2
DIMSTYLE
5
21B
330
0
100
AcDbSymbolTable
70
2
100
AcDbDimStyleTable
71
1
340
268
0
DIMSTYLE
105
268
330
21B
100
AcDbSymbolTableRecord
100
AcDbDimStyleTableRecord
2
STANDARD
70
0
279
2
340
266
0
DIMSTYLE
105
269
330
21B
100
AcDbSymbolTableRecord
100
AcDbDimStyleTableRecord
2
ANNOTATIVE
70
0
40
0.0
279
2
340
266
1001
ACADANNOTATIVE
1000
AnnotativeData
1002
{
1070
1
1070
1
1002
}
0
ENDTAB
0
TABLE
2
BLOCK_RECORD
5
212
330
0
100
AcDbSymbolTable
70
2
0
BLOCK_RECORD
5
281
330
212
100
AcDbSymbolTableRecord
100
AcDbBlockTableRecord
2
*Model_Space
340
284
70
0
280
1
281
0
0
BLOCK_RECORD
5
27D
330
212
100
AcDbSymbolTableRecord
100
AcDbBlockTableRecord
2
*Paper_Space
340
280
70
0
280
1
281
0
0
BLOCK_RECORD
5
28C
330
212
100
AcDbSymbolTableRecord
100
AcDbBlockTableRecord
2
$MODEL_SPACE
340
0
70
0
280
1
281
0
0
BLOCK_RECORD
5
28E
330
212
100
AcDbSymbolTableRecord
100
AcDbBlockTableRecord
2
$PAPER_SPACE
340
0
70
0
280
1
281
0
0
ENDTAB
0
ENDSEC
0
SECTION
2
BLOCKS
0
BLOCK
5
282
330
281
100
AcDbEntity
8
0
100
AcDbBlockBegin
2
*Model_Space
70
0
10
0.0
20
0.0
30
0.0
3
*Model_Space
1

0
ENDBLK
5
283
330
281
100
AcDbEntity
8
0
100
AcDbBlockEnd
0
BLOCK
5
27E
330
27D
100
AcDbEntity
67
1
8
0
100
AcDbBlockBegin
2
*Paper_Space
70
0
10
0.0
20
0.0
30
0.0
3
*Paper_Space
1

0
ENDBLK
5
27F
330
27D
100
AcDbEntity
67
1
8
0
100
AcDbBlockEnd
0
BLOCK
5
28D
330
28C
100
AcDbEntity
8
0
100
AcDbBlockBegin
2
$MODEL_SPACE
70
0
10
0.0
20
0.0
30
0.0
3
$MODEL_SPACE
1

0
ENDBLK
5
21
330
28C
100
AcDbEntity
8
0
100
AcDbBlockEnd
0
BLOCK
5
28F
330
28E
100
AcDbEntity
8
0
100
AcDbBlockBegin
2
$PAPER_SPACE
70
0
10
0.0
20
0.0
30
0.0
3
$PAPER_SPACE
1

0
ENDBLK
5
5B
330
28E
100
AcDbEntity
8
0
100
AcDbBlockEnd
0
ENDSEC
0
SECTION
2
ENTITIES
0
LWPOLYLINE
5
1000
100
AcDbEntity
100
AcDbPolyline
90
2112
70
1
43
0
10
2.7125
20
0
10
2.7126245
20
0.0045827
10
2.7195114
20
0.005837
10
2.7269341
20
0.0073007
10
2.7348879
20
0.0089896
10
2.7433676
20
0.0109195
10
2.7523678
20
0.0131059
10
2.7618828
20
0.0155644
10
2.7719063
20
0.0183104
10
2.782432
20
0.0213591
10
2.793453
20
0.0247258
10
2.8049623
20
0.0284254
10
2.8169522
20
0.0324728
10
2.8294151
20
0.0368828
10
2.8423428
20
0.0416699
10
2.8557268
20
0.0468486
10
2.8695585
20
0.052433
10
2.8838287
20
0.0584372
10
2.898528
20
0.0648752
10
2.9136467
20
0.0717607
10
2.9291748
20
0.079107
10
2.945102
20
0.0869277
10
2.9614176
20
0.0952357
10
2.9781108
20
0.104044
10
2.9951703
20
0.1133653
10
3.0125847
20
0.123212
10
3.0303422
20
0.1335963
10
3.0484306
20
0.1445303
10
3.0668378
20
0.1560258
10
3.085551
20
0.1680941
10
3.1045574
20
0.1807467
10
3.1238439
20
0.1939945
10
3.143397
20
0.2078483
10
3.1632032
20
0.2223185
10
3.1832485
20
0.2374155
10
3.2035188
20
0.253149
10
3.2239997
20
0.2695289
10
3.2343146
20
0.2779642
10
3.2369008
20
0.2800987
10
3.2375478
20
0.280634
10
3.2377096
20
0.2807679
10
3.2377905
20
0.2808349
10
3.2378309
20
0.2808683
10
3.2378381
20
0.280899
10
3.2266188
20
0.3891418
10
3.2266054
20
0.3891702
10
3.226559
20
0.3891947
10
3.2264661
20
0.3892437
10
3.2262803
20
0.3893416
10
3.2255372
20
0.3897328
10
3.2225683
20
0.3912915
10
3.2107426
20
0.3974319
10
3.1873376
20
0.409263
10
3.1642713
20
0.4205047
10
3.1415558
20
0.4311695
10
3.1192029
20
0.44127
10
3.097224
20
0.450819
10
3.0756305
20
0.4598296
10
3.0544331
20
0.468315
10
3.0336425
20
0.4762888
10
3.013269
20
0.4837646
10
2.9933226
20
0.4907563
10
2.9738128
20
0.4972779
10
2.9547491
20
0.5033436
10
2.9361405
20
0.5089679
10
2.9179956
20
0.5141652
10
2.9003228
20
0.5189504
10
2.8831302
20
0.5233382
10
2.8664255
20
0.5273436
10
2.850216
20
0.5309819
10
2.8345088
20
0.5342682
10
2.8193105
20
0.5372181
10
2.8046276
20
0.539847
10
2.7904659
20
0.5421705
10
2.7768312
20
0.5442044
10
2.7637288
20
0.5459645
10
2.7511636
20
0.5474668
10
2.7391403
20
0.5487273
10
2.7276631
20
0.549762
10
2.7167359
20
0.5505872
10
2.7063622
20
0.551219
10
2.6965453
20
0.5516738
10
2.687288
20
0.5519678
10
2.6785927
20
0.5521174
10
2.6704616
20
0.5521391
10
2.6628965
20
0.5520494
10
2.6558987
20
0.5518645
10
2.654837
20
0.5563243
10
2.6200738
20
0.7020467
10
2.619008
20
0.7065054
10
2.6253356
20
0.7094995
10
2.6321265
20
0.7128345
10
2.6393721
20
0.7165244
10
2.6470634
20
0.7205832
10
2.6551911
20
0.7250245
10
2.6637456
20
0.7298619
10
2.6727169
20
0.7351086
10
2.6820948
20
0.7407777
10
2.6918689
20
0.7468821
10
2.7020285
20
0.7534345
10
2.7125623
20
0.7604472
10
2.7234591
20
0.7679326
10
2.7347073
20
0.7759025
10
2.746295
20
0.7843687
10
2.75821
20
0.7933428
10
2.7704399
20
0.8028358
10
2.7829721
20
0.8128589
10
2.7957935
20
0.8234227
10
2.8088911
20
0.8345378
10
2.8222515
20
0.8462142
10
2.8358609
20
0.8584619
10
2.8497056
20
0.8712906
10
2.8637713
20
0.8847096
10
2.8780438
20
0.8987279
10
2.8925085
20
0.9133544
10
2.9071507
20
0.9285975
10
2.9219554
20
0.9444653
10
2.9369074
20
0.9609658
10
2.9519915
20
0.9781065
10
2.967192
20
0.9958946
10
2.9824933
20
1.014337
10
2.9978794
20
1.0334404
10
3.0133343
20
1.0532111
10
3.0288418
20
1.0736549
10
3.0443854
20
1.0947775
10
3.0521656
20
1.105595
10
3.0541112
20
1.1083262
10
3.0545976
20
1.1090106
10
3.0547192
20
1.1091819
10
3.05478
20
1.1092675
10
3.0548104
20
1.1093103
10
3.0548095
20
1.1093417
10
3.0159571
20
1.2109925
10
3.0159369
20
1.2110165
10
3.0158856
20
1.2110282
10
3.0157832
20
1.2110514
10
3.0155784
20
1.2110979
10
3.0147595
20
1.2112834
10
3.0114882
20
1.2120206
10
2.9984763
20
1.2148911
10
2.9728067
20
1.2202614
10
2.9476167
20
1.2251501
10
2.922915
20
1.2295722
10
2.8987095
20
1.2335432
10
2.8750082
20
1.2370783
10
2.8518183
20
1.240193
10
2.829147
20
1.242903
10
2.8070011
20
1.2452241
10
2.7853869
20
1.2471721
10
2.7643105
20
1.2487631
10
2.7437776
20
1.250013
10
2.7237935
20
1.250938
10
2.7043633
20
1.2515543
10
2.6854915
20
1.2518783
10
2.6671825
20
1.2519263
10
2.6494401
20
1.2517148
10
2.6322679
20
1.2512603
10
2.615669
20
1.2505793
10
2.5996465
20
1.2496883
10
2.5842026
20
1.2486041
10
2.5693395
20
1.2473431
10
2.555059
20
1.2459222
10
2.5413625
20
1.2443579
10
2.528251
20
1.2426669
10
2.5157252
20
1.2408659
10
2.5037853
20
1.2389716
10
2.4924313
20
1.2370005
10
2.4816629
20
1.2349694
10
2.4714792
20
1.2328948
10
2.4618791
20
1.2307932
10
2.4528611
20
1.2286812
10
2.4444234
20
1.2265753
10
2.4365637
20
1.2244918
10
2.4292796
20
1.2224471
10
2.4225681
20
1.2204574
10
2.4203883
20
1.2244904
10
2.3490939
20
1.35625
10
2.3469104
20
1.360281
10
2.3522474
20
1.3648107
10
2.3579438
20
1.3697897
10
2.3639876
20
1.3752292
10
2.3703663
20
1.3811404
10
2.3770675
20
1.387534
10
2.3840785
20
1.3944205
10
2.3913861
20
1.4018104
10
2.3989773
20
1.4097135
10
2.4068384
20
1.4181397
10
2.4149559
20
1.4270983
10
2.4233158
20
1.4365984
10
2.4319039
20
1.446649
10
2.4407061
20
1.4572586
10
2.4497077
20
1.4684355
10
2.4588941
20
1.4801875
10
2.4682503
20
1.4925225
10
2.4777612
20
1.5054476
10
2.4874117
20
1.5189699
10
2.4971862
20
1.5330961
10
2.5070693
20
1.5478326
10
2.517045
20
1.5631854
10
2.5270976
20
1.5791602
10
2.537211
20
1.5957624
10
2.5473689
20
1.6129971
10
2.5575551
20
1.6308689
10
2.5677532
20
1.6493823
10
2.5779466
20
1.6685412
10
2.5881185
20
1.6883493
10
2.5982522
20
1.7088099
10
2.6083309
20
1.7299261
10
2.6183375
20
1.7517004
10
2.6282551
20
1.7741351
10
2.6380663
20
1.7972321
10
2.6477542
20
1.8209929
10
2.6573012
20
1.8454188
10
2.6620166
20
1.8578813
10
2.663189
20
1.861023
10
2.6634817
20
1.8618101
10
2.6635548
20
1.8620069
10
2.6635914
20
1.8621054
10
2.6636097
20
1.8621546
10
2.6636006
20
1.8621847
10
2.5997629
20
1.950316
10
2.5997372
20
1.950334
10
2.5996847
20
1.950332
10
2.5995797
20
1.950328
10
2.5993699
20
1.9503198
10
2.5985308
20
1.9502871
10
2.5951802
20
1.9501525
10
2.5818687
20
1.9495574
10
2.5556838
20
1.948101
10
2.530087
20
1.9463034
10
2.5050824
20
1.9441817
10
2.4806739
20
1.9417524
10
2.4568652
20
1.9390327
10
2.4336594
20
1.9360393
10
2.4110592
20
1.9327893
10
2.3890671
20
1.9292995
10
2.3676852
20
1.925587
10
2.3469152
20
1.9216687
10
2.3267585
20
1.9175617
10
2.307216
20
1.9132829
10
2.2882883
20
1.9088493
10
2.2699757
20
1.9042779
10
2.2522781
20
1.8995856
10
2.2351949
20
1.8947892
10
2.2187255
20
1.8899057
10
2.2028685
20
1.8849518
10
2.1876225
20
1.8799443
10
2.1729855
20
1.8748998
10
2.1589552
20
1.869835
10
2.1455291
20
1.8647664
10
2.1327042
20
1.8597104
10
2.1204771
20
1.8546836
10
2.1088442
20
1.849702
10
2.0978014
20
1.8447819
10
2.0873445
20
1.8399394
10
2.0774687
20
1.8351904
10
2.0681689
20
1.8305508
10
2.0594398
20
1.8260361
10
2.0512758
20
1.8216621
10
2.0436706
20
1.8174441
10
2.036618
20
1.8133973
10
2.0301113
20
1.809537
10
2.0241435
20
1.8058781
10
2.0209941
20
1.8092095
10
1.9180271
20
1.9180271
10
1.9148747
20
1.9213556
10
1.9188575
20
1.9271124
10
1.9230712
20
1.933396
10
1.9275011
20
1.9402144
10
1.9321326
20
1.9475751
10
1.9369507
20
1.9554852
10
1.9419404
20
1.9639517
10
1.9470864
20
1.9729812
10
1.9523734
20
1.9825797
10
1.9577858
20
1.9927534
10
1.963308
20
2.0035076
10
1.9689242
20
2.0148478
10
1.9746185
20
2.0267787
10
1.9803748
20
2.0393049
10
1.9861769
20
2.0524307
10
1.9920086
20
2.06616
10
1.9978534
20
2.0804962
10
2.0036951
20
2.0954425
10
2.0095169
20
2.1110018
10
2.0153022
20
2.1271765
10
2.0210344
20
2.1439687
10
2.0266966
20
2.1613803
10
2.0322721
20
2.1794126
10
2.0377439
20
2.1980666
10
2.0430951
20
2.2173431
10
2.0483086
20
2.2372424
10
2.0533676
20
2.2577644
10
2.0582549
20
2.2789087
10
2.0629535
20
2.3006745
10
2.0674464
20
2.3230608
10
2.0717164
20
2.346066
10
2.0757464
20
2.3696883
10
2.0795195
20
2.3939254
10
2.0830185
20
2.4187747
10
2.0862265
20
2.4442333
10
2.0891264
20
2.4702978
10
2.0904555
20
2.4835562
10
2.0907748
20
2.4868942
10
2.0908538
20
2.4877302
10
2.0908735
20
2.4879393
10
2.0908834
20
2.4880438
10
2.0908883
20
2.4880961
10
2.0908717
20
2.4881229
10
2.0063992
20
2.5567288
10
2.0063697
20
2.5567395
10
2.0063195
20
2.556724
10
2.0062192
20
2.5566929
10
2.0060186
20
2.5566307
10
2.0052166
20
2.5563819
10
2.002015
20
2.5553848
10
1.9893111
20
2.5513647
10
1.9643954
20
2.5431807
10
1.940136
20
2.5348195
10
1.9165325
20
2.5262983
10
1.8935845
20
2.5176345
10
1.871291
20
2.5088453
10
1.8496506
20
2.4999478
10
1.8286617
20
2.4909591
10
1.8083222
20
2.4818963
10
1.7886297
20
2.4727762
10
1.7695816
20
2.4636158
10
1.7511746
20
2.4544318
10
1.7334054
20
2.4452408
10
1.7162702
20
2.4360595
10
1.6997647
20
2.4269042
10
1.6838846
20
2.4177913
10
1.668625
20
2.4087369
10
1.6539807
20
2.3997572
10
1.6399462
20
2.390868
10
1.6265157
20
2.3820851
10
1.613683
20
2.3734241
10
1.6014417
20
2.3649006
10
1.5897849
20
2.3565298
10
1.5787056
20
2.3483268
10
1.5681962
20
2.3403066
10
1.5582489
20
2.332484
10
1.5488559
20
2.3248735
10
1.5400086
20
2.3174895
10
1.5316984
20
2.3103463
10
1.5239164
20
2.3034578
10
1.5166532
20
2.2968377
10
1.5098994
20
2.2904997
10
1.5036451
20
2.284457
10
1.4978802
20
2.2787229
10
1.4925943
20
2.27331
10
1.4877769
20
2.2682312
10
1.4838726
20
2.2706339
10
1.35625
20
2.3490939
10
1.3523435
20
2.3514931
10
1.3547007
20
2.3580845
10
1.3571444
20
2.3652446
10
1.3596587
20
2.3729772
10
1.3622272
20
2.3812858
10
1.3648339
20
2.3901734
10
1.3674622
20
2.3996428
10
1.3700959
20
2.4096965
10
1.3727185
20
2.4203364
10
1.3753134
20
2.4315642
10
1.377864
20
2.4433813
10
1.3803538
20
2.4557886
10
1.3827661
20
2.4687868
10
1.3850842
20
2.482376
10
1.3872914
20
2.4965563
10
1.389371
20
2.511327
10
1.3913062
20
2.5266875
10
1.3930804
20
2.5426365
10
1.3946768
20
2.5591724
10
1.3960787
20
2.5762933
10
1.3972694
20
2.593997
10
1.3982322
20
2.6122807
10
1.3989506
20
2.6311416
10
1.3994079
20
2.6505763
10
1.3995876
20
2.6705809
10
1.3994733
20
2.6911515
10
1.3990484
20
2.7122836
10
1.3982966
20
2.7339723
10
1.3972017
20
2.7562126
10
1.3957475
20
2.7789989
10
1.3939178
20
2.8023254
10
1.3916966
20
2.8261858
10
1.3890681
20
2.8505736
10
1.3860164
20
2.8754818
10
1.3825259
20
2.9009032
10
1.378581
20
2.9268301
10
1.3764333
20
2.9399807
10
1.3758778
20
2.9432877
10
1.3757378
20
2.9441156
10
1.3757027
20
2.9443227
10
1.3756851
20
2.9444262
10
1.3756763
20
2.944478
10
1.3756534
20
2.9444996
10
1.2763027
20
2.9889047
10
1.2762714
20
2.9889074
10
1.276227
20
2.9888794
10
1.2761381
20
2.9888234
10
1.2759604
20
2.9887115
10
1.2752502
20
2.9882636
10
1.2724157
20
2.9864717
10
1.2611852
20
2.9793006
10
1.2392367
20
2.9649468
10
1.2179679
20
2.9505917
10
1.1973741
20
2.9362519
10
1.1774504
20
2.9219439
10
1.1581913
20
2.9076842
10
1.1395912
20
2.8934889
10
1.1216439
20
2.8793742
10
1.1043431
20
2.8653559
10
1.0876821
20
2.8514498
10
1.0716539
20
2.8376715
10
1.0562511
20
2.8240364
10
1.0414662
20
2.8105596
10
1.0272911
20
2.7972562
10
1.0137176
20
2.7841409
10
1.0007372
20
2.7712284
10
0.988341
20
2.7585331
10
0.9765198
20
2.7460691
10
0.9652642
20
2.7338504
10
0.9545645
20
2.7218907
10
0.9444108
20
2.7102036
10
0.9347926
20
2.6988022
10
0.9256995
20
2.6876996
10
0.9171208
20
2.6769086
10
0.9090452
20
2.6664416
10
0.9014616
20
2.656311
10
0.8943584
20
2.6465287
10
0.8877236
20
2.6371065
10
0.8815454
20
2.6280559
10
0.8758114
20
2.6193879
10
0.8705092
20
2.6111136
10
0.8656259
20
2.6032435
10
0.8611486
20
2.595788
10
0.8570643
20
2.5887572
10
0.8533595
20
2.5821607
10
0.8500207
20
2.576008
10
0.8456275
20
2.5773184
10
0.7020467
20
2.6200738
10
0.6976523
20
2.6213801
10
0.6982232
20
2.628357
10
0.6987305
20
2.6359057
10
0.6991577
20
2.6440255
10
0.6994884
20
2.6527158
10
0.6997059
20
2.6619752
10
0.6997938
20
2.6718023
10
0.6997357
20
2.682195
10
0.6995151
20
2.6931511
10
0.6991156
20
2.7046679
10
0.6985208
20
2.7167425
10
0.6977145
20
2.7293715
10
0.6966804
20
2.7425511
10
0.6954024
20
2.7562773
10
0.6938643
20
2.7705456
10
0.69205
20
2.7853513
10
0.6899437
20
2.8006893
10
0.6875296
20
2.816554
10
0.6847918
20
2.8329396
10
0.6817147
20
2.84984
10
0.6782828
20
2.8672486
10
0.6744806
20
2.8851586
10
0.670293
20
2.9035627
10
0.6657047
20
2.9224535
10
0.6607007
20
2.941823
10
0.6552661
20
2.9616631
10
0.6493863
20
2.9819651
10
0.6430467
20
3.0027203
10
0.6362329
20
3.0239194
10
0.6289307
20
3.0455529
10
0.621126
20
3.067611
10
0.612805
20
3.0900835
10
0.603954
20
3.1129599
10
0.5945596
20
3.1362296
10
0.5846085
20
3.1598814
10
0.5740876
20
3.1839038
10
0.5686095
20
3.1960505
10
0.567217
20
3.199101
10
0.5668674
20
3.1998645
10
0.56678
20
3.2000554
10
0.5667362
20
3.2001509
10
0.5667143
20
3.2001986
10
0.5666866
20
3.2002135
10
0.4592283
20
3.2173917
10
0.4591973
20
3.2173862
10
0.4591617
20
3.2173477
10
0.4590903
20
3.2172706
10
0.4589477
20
3.2171165
10
0.4583775
20
3.2165
10
0.4561035
20
3.2140356
10
0.4471116
20
3.2042022
10
0.429626
20
3.1846568
10
0.4127973
20
3.165286
10
0.3966167
20
3.1461048
10
0.381075
20
3.1271277
10
0.3661629
20
3.1083692
10
0.3518705
20
3.0898436
10
0.3381879
20
3.0715647
10
0.3251048
20
3.0535463
10
0.3126107
20
3.0358019
10
0.3006947
20
3.0183446
10
0.2893458
20
3.0011876
10
0.2785527
20
2.9843434
10
0.2683038
20
2.9678245
10
0.2585874
20
2.951643
10
0.2493912
20
2.935811
10
0.2407032
20
2.9203398
10
0.2325107
20
2.905241
10
0.2248011
20
2.8905255
10
0.2175614
20
2.876204
10
0.2107784
20
2.8622871
10
0.2044389
20
2.8487849
10
0.1985293
20
2.8357071
10
0.1930357
20
2.8230635
10
0.1879444
20
2.8108631
10
0.1832412
20
2.7991149
10
0.1789118
20
2.7878274
10
0.1749418
20
2.7770091
10
0.1713166
20
2.7666678
10
0.1680214
20
2.7568111
10
0.1650414
20
2.7474464
10
0.1623614
20
2.7385806
10
0.1599663
20
2.7302204
10
0.1578409
20
2.722372
10
0.1559696
20
2.7150414
10
0.154337
20
2.7082342
10
0.1497544
20
2.708363
10
0
20
2.7125
10
-0.0045827
20
2.7126245
10
-0.005837
20
2.7195114
10
-0.0073007
20
2.7269341
10
-0.0089896
20
2.7348879
10
-0.0109195
20
2.7433676
10
-0.0131059
20
2.7523678
10
-0.0155644
20
2.7618828
10
-0.0183104
20
2.7719063
10
-0.0213591
20
2.782432
10
-0.0247258
20
2.793453
10
-0.0284254
20
2.8049623
10
-0.0324728
20
2.8169522
10
-0.0368828
20
2.8294151
10
-0.0416699
20
2.8423428
10
-0.0468486
20
2.8557268
10
-0.052433
20
2.8695585
10
-0.0584372
20
2.8838287
10
-0.0648752
20
2.898528
10
-0.0717607
20
2.9136467
10
-0.079107
20
2.9291748
10
-0.0869277
20
2.945102
10
-0.0952357
20
2.9614176
10
-0.104044
20
2.9781108
10
-0.1133653
20
2.9951703
10
-0.123212
20
3.0125847
10
-0.1335963
20
3.0303422
10
-0.1445303
20
3.0484306
10
-0.1560258
20
3.0668378
10
-0.1680941
20
3.085551
10
-0.1807467
20
3.1045574
10
-0.1939945
20
3.1238439
10
-0.2078483
20
3.143397
10
-0.2223185
20
3.1632032
10
-0.2374155
20
3.1832485
10
-0.253149
20
3.2035188
10
-0.2695289
20
3.2239997
10
-0.2779642
20
3.2343146
10
-0.2800987
20
3.2369008
10
-0.280634
20
3.2375478
10
-0.2807679
20
3.2377096
10
-0.2808349
20
3.2377905
10
-0.2808683
20
3.2378309
10
-0.280899
20
3.2378381
10
-0.3891418
20
3.2266188
10
-0.3891702
20
3.2266054
10
-0.3891947
20
3.226559
10
-0.3892437
20
3.2264661
10
-0.3893416
20
3.2262803
10
-0.3897328
20
3.2255372
10
-0.3912915
20
3.2225683
10
-0.3974319
20
3.2107426
10
-0.409263
20
3.1873376
10
-0.4205047
20
3.1642713
10
-0.4311695
20
3.1415558
10
-0.44127
20
3.1192029
10
-0.450819
20
3.097224
10
-0.4598296
20
3.0756305
10
-0.468315
20
3.0544331
10
-0.4762888
20
3.0336425
10
-0.4837646
20
3.013269
10
-0.4907563
20
2.9933226
10
-0.4972779
20
2.9738128
10
-0.5033436
20
2.9547491
10
-0.5089679
20
2.9361405
10
-0.5141652
20
2.9179956
10
-0.5189504
20
2.9003228
10
-0.5233382
20
2.8831302
10
-0.5273436
20
2.8664255
10
-0.5309819
20
2.850216
10
-0.5342682
20
2.8345088
10
-0.5372181
20
2.8193105
10
-0.539847
20
2.8046276
10
-0.5421705
20
2.7904659
10
-0.5442044
20
2.7768312
10
-0.5459645
20
2.7637288
10
-0.5474668
20
2.7511636
10
-0.5487273
20
2.7391403
10
-0.549762
20
2.7276631
10
-0.5505872
20
2.7167359
10
-0.551219
20
2.7063622
10
-0.5516738
20
2.6965453
10
-0.5519678
20
2.687288
10
-0.5521174
20
2.6785927
10
-0.5521391
20
2.6704616
10
-0.5520494
20
2.6628965
10
-0.5518645
20
2.6558987
10
-0.5563243
20
2.654837
10
-0.7020467
20
2.6200738
10
-0.7065054
20
2.619008
10
-0.7094995
20
2.6253356
10
-0.7128345
20
2.6321265
10
-0.7165244
20
2.6393721
10
-0.7205832
20
2.6470634
10
-0.7250245
20
2.6551911
10
-0.7298619
20
2.6637456
10
-0.7351086
20
2.6727169
10
-0.7407777
20
2.6820948
10
-0.7468821
20
2.6918689
10
-0.7534345
20
2.7020285
10
-0.7604472
20
2.7125623
10
-0.7679326
20
2.7234591
10
-0.7759025
20
2.7347073
10
-0.7843687
20
2.746295
10
-0.7933428
20
2.75821
10
-0.8028358
20
2.7704399
10
-0.8128589
20
2.7829721
10
-0.8234227
20
2.7957935
10
-0.8345378
20
2.8088911
10
-0.8462142
20
2.8222515
10
-0.8584619
20
2.8358609
10
-0.8712906
20
2.8497056
10
-0.8847096
20
2.8637713
10
-0.8987279
20
2.8780438
10
-0.9133544
20
2.8925085
10
-0.9285975
20
2.9071507
10
-0.9444653
20
2.9219554
10
-0.9609658
20
2.9369074
10
-0.9781065
20
2.9519915
10
-0.9958946
20
2.967192
10
-1.014337
20
2.9824933
10
-1.0334404
20
2.9978794
10
-1.0532111
20
3.0133343
10
-1.0736549
20
3.0288418
10
-1.0947775
20
3.0443854
10
-1.105595
20
3.0521656
10
-1.1083262
20
3.0541112
10
-1.1090106
20
3.0545976
10
-1.1091819
20
3.0547192
10
-1.1092675
20
3.05478
10
-1.1093103
20
3.0548104
10
-1.1093417
20
3.0548095
10
-1.2109925
20
3.0159571
10
-1.2110165
20
3.0159369
10
-1.2110282
20
3.0158856
10
-1.2110514
20
3.0157832
10
-1.2110979
20
3.0155784
10
-1.2112834
20
3.0147595
10
-1.2120206
20
3.0114882
10
-1.2148911
20
2.9984763
10
-1.2202614
20
2.9728067
10
-1.2251501
20
2.9476167
10
-1.2295722
20
2.922915
10
-1.2335432
20
2.8987095
10
-1.2370783
20
2.8750082
10
-1.240193
20
2.8518183
10
-1.242903
20
2.829147
10
-1.2452241
20
2.8070011
10
-1.2471721
20
2.7853869
10
-1.2487631
20
2.7643105
10
-1.250013
20
2.7437776
10
-1.250938
20
2.7237935
10
-1.2515543
20
2.7043633
10
-1.2518783
20
2.6854915
10
-1.2519263
20
2.6671825
10
-1.2517148
20
2.6494401
10
-1.2512603
20
2.6322679
10
-1.2505793
20
2.615669
10
-1.2496883
20
2.5996465
10
-1.2486041
20
2.5842026
10
-1.2473431
20
2.5693395
10
-1.2459222
20
2.555059
10
-1.2443579
20
2.5413625
10
-1.2426669
20
2.528251
10
-1.2408659
20
2.5157252
10
-1.2389716
20
2.5037853
10
-1.2370005
20
2.4924313
10
-1.2349694
20
2.4816629
10
-1.2328948
20
2.4714792
10
-1.2307932
20
2.4618791
10
-1.2286812
20
2.4528611
10
-1.2265753
20
2.4444234
10
-1.2244918
20
2.4365637
10
-1.2224471
20
2.4292796
10
-1.2204574
20
2.4225681
10
-1.2244904
20
2.4203883
10
-1.35625
20
2.3490939
10
-1.360281
20
2.3469104
10
-1.3648107
20
2.3522474
10
-1.3697897
20
2.3579438
10
-1.3752292
20
2.3639876
10
-1.3811404
20
2.3703663
10
-1.387534
20
2.3770675
10
-1.3944205
20
2.3840785
10
-1.4018104
20
2.3913861
10
-1.4097135
20
2.3989773
10
-1.4181397
20
2.4068384
10
-1.4270983
20
2.4149559
10
-1.4365984
20
2.4233158
10
-1.446649
20
2.4319039
10
-1.4572586
20
2.4407061
10
-1.4684355
20
2.4497077
10
-1.4801875
20
2.4588941
10
-1.4925225
20
2.4682503
10
-1.5054476
20
2.4777612
10
-1.5189699
20
2.4874117
10
-1.5330961
20
2.4971862
10
-1.5478326
20
2.5070693
10
-1.5631854
20
2.517045
10
-1.5791602
20
2.5270976
10
-1.5957624
20
2.537211
10
-1.6129971
20
2.5473689
10
-1.6308689
20
2.5575551
10
-1.6493823
20
2.5677532
10
-1.6685412
20
2.5779466
10
-1.6883493
20
2.5881185
10
-1.7088099
20
2.5982522
10
-1.7299261
20
2.6083309
10
-1.7517004
20
2.6183375
10
-1.7741351
20
2.6282551
10
-1.7972321
20
2.6380663
10
-1.8209929
20
2.6477542
10
-1.8454188
20
2.6573012
10
-1.8578813
20
2.6620166
10
-1.861023
20
2.663189
10
-1.8618101
20
2.6634817
10
-1.8620069
20
2.6635548
10
-1.8621054
20
2.6635914
10
-1.8621546
20
2.6636097
10
-1.8621847
20
2.6636006
10
-1.950316
20
2.5997629
10
-1.950334
20
2.5997372
10
-1.950332
20
2.5996847
10
-1.950328
20
2.5995797
10
-1.9503198
20
2.5993699
10
-1.9502871
20
2.5985308
10
-1.9501525
20
2.5951802
10
-1.9495574
20
2.5818687
10
-1.948101
20
2.5556838
10
-1.9463034
20
2.530087
10
-1.9441817
20
2.5050824
10
-1.9417524
20
2.4806739
10
-1.9390327
20
2.4568652
10
-1.9360393
20
2.4336594
10
-1.9327893
20
2.4110592
10
-1.9292995
20
2.3890671
10
-1.925587
20
2.3676852
10
-1.9216687
20
2.3469152
10
-1.9175617
20
2.3267585
10
-1.9132829
20
2.307216
10
-1.9088493
20
2.2882883
10
-1.9042779
20
2.2699757
10
-1.8995856
20
2.2522781
10
-1.8947892
20
2.2351949
10
-1.8899057
20
2.2187255
10
-1.8849518
20
2.2028685
10
-1.8799443
20
2.1876225
10
-1.8748998
20
2.1729855
10
-1.869835
20
2.1589552
10
-1.8647664
20
2.1455291
10
-1.8597104
20
2.1327042
10
-1.8546836
20
2.1204771
10
-1.849702
20
2.1088442
10
-1.8447819
20
2.0978014
10
-1.8399394
20
2.0873445
10
-1.8351904
20
2.0774687
10
-1.8305508
20
2.0681689
10
-1.8260361
20
2.0594398
10
-1.8216621
20
2.0512758
10
-1.8174441
20
2.0436706
10
-1.8133973
20
2.036618
10
-1.809537
20
2.0301113
10
-1.8058781
20
2.0241435
10
-1.8092095
20
2.0209941
10
-1.9180271
20
1.9180271
10
-1.9213556
20
1.9148747
10
-1.9271124
20
1.9188575
10
-1.933396
20
1.9230712
10
-1.9402144
20
1.9275011
10
-1.9475751
20
1.9321326
10
-1.9554852
20
1.9369507
10
-1.9639517
20
1.9419404
10
-1.9729812
20
1.9470864
10
-1.9825797
20
1.9523734
10
-1.9927534
20
1.9577858
10
-2.0035076
20
1.963308
10
-2.0148478
20
1.9689242
10
-2.0267787
20
1.9746185
10
-2.0393049
20
1.9803748
10
-2.0524307
20
1.9861769
10
-2.06616
20
1.9920086
10
-2.0804962
20
1.9978534
10
-2.0954425
20
2.0036951
10
-2.1110018
20
2.0095169
10
-2.1271765
20
2.0153022
10
-2.1439687
20
2.0210344
10
-2.1613803
20
2.0266966
10
-2.1794126
20
2.0322721
10
-2.1980666
20
2.0377439
10
-2.2173431
20
2.0430951
10
-2.2372424
20
2.0483086
10
-2.2577644
20
2.0533676
10
-2.2789087
20
2.0582549
10
-2.3006745
20
2.0629535
10
-2.3230608
20
2.0674464
10
-2.346066
20
2.0717164
10
-2.3696883
20
2.0757464
10
-2.3939254
20
2.0795195
10
-2.4187747
20
2.0830185
10
-2.4442333
20
2.0862265
10
-2.4702978
20
2.0891264
10
-2.4835562
20
2.0904555
10
-2.4868942
20
2.0907748
10
-2.4877302
20
2.0908538
10
-2.4879393
20
2.0908735
10
-2.4880438
20
2.0908834
10
-2.4880961
20
2.0908883
10
-2.4881229
20
2.0908717
10
-2.5567288
20
2.0063992
10
-2.5567395
20
2.0063697
10
-2.556724
20
2.0063195
10
-2.5566929
20
2.0062192
10
-2.5566307
20
2.0060186
10
-2.5563819
20
2.0052166
10
-2.5553848
20
2.002015
10
-2.5513647
20
1.9893111
10
-2.5431807
20
1.9643954
10
-2.5348195
20
1.940136
10
-2.5262983
20
1.9165325
10
-2.5176345
20
1.8935845
10
-2.5088453
20
1.871291
10
-2.4999478
20
1.8496506
10
-2.4909591
20
1.8286617
10
-2.4818963
20
1.8083222
10
-2.4727762
20
1.7886297
10
-2.4636158
20
1.7695816
10
-2.4544318
20
1.7511746
10
-2.4452408
20
1.7334054
10
-2.4360595
20
1.7162702
10
-2.4269042
20
1.6997647
10
-2.4177913
20
1.6838846
10
-2.4087369
20
1.668625
10
-2.3997572
20
1.6539807
10
-2.390868
20
1.6399462
10
-2.3820851
20
1.6265157
10
-2.3734241
20
1.613683
10
-2.3649006
20
1.6014417
10
-2.3565298
20
1.5897849
10
-2.3483268
20
1.5787056
10
-2.3403066
20
1.5681962
10
-2.332484
20
1.5582489
10
-2.3248735
20
1.5488559
10
-2.3174895
20
1.5400086
10
-2.3103463
20
1.5316984
10
-2.3034578
20
1.5239164
10
-2.2968377
20
1.5166532
10
-2.2904997
20
1.5098994
10
-2.284457
20
1.5036451
10
-2.2787229
20
1.4978802
10
-2.27331
20
1.4925943
10
-2.2682312
20
1.4877769
10
-2.2706339
20
1.4838726
10
-2.3490939
20
1.35625
10
-2.3514931
20
1.3523435
10
-2.3580845
20
1.3547007
10
-2.3652446
20
1.3571444
10
-2.3729772
20
1.3596587
10
-2.3812858
20
1.3622272
10
-2.3901734
20
1.3648339
10
-2.3996428
20
1.3674622
10
-2.4096965
20
1.3700959
10
-2.4203364
20
1.3727185
10
-2.4315642
20
1.3753134
10
-2.4433813
20
1.377864
10
-2.4557886
20
1.3803538
10
-2.4687868
20
1.3827661
10
-2.482376
20
1.3850842
10
-2.4965563
20
1.3872914
10
-2.511327
20
1.389371
10
-2.5266875
20
1.3913062
10
-2.5426365
20
1.3930804
10
-2.5591724
20
1.3946768
10
-2.5762933
20
1.3960787
10
-2.593997
20
1.3972694
10
-2.6122807
20
1.3982322
10
-2.6311416
20
1.3989506
10
-2.6505763
20
1.3994079
10
-2.6705809
20
1.3995876
10
-2.6911515
20
1.3994733
10
-2.7122836
20
1.3990484
10
-2.7339723
20
1.3982966
10
-2.7562126
20
1.3972017
10
-2.7789989
20
1.3957475
10
-2.8023254
20
1.3939178
10
-2.8261858
20
1.3916966
10
-2.8505736
20
1.3890681
10
-2.8754818
20
1.3860164
10
-2.9009032
20
1.3825259
10
-2.9268301
20
1.378581
10
-2.9399807
20
1.3764333
10
-2.9432877
20
1.3758778
10
-2.9441156
20
1.3757378
10
-2.9443227
20
1.3757027
10
-2.9444262
20
1.3756851
10
-2.944478
20
1.3756763
10
-2.9444996
20
1.3756534
10
-2.9889047
20
1.2763027
10
-2.9889074
20
1.2762714
10
-2.9888794
20
1.276227
10
-2.9888234
20
1.2761381
10
-2.9887115
20
1.2759604
10
-2.9882636
20
1.2752502
10
-2.9864717
20
1.2724157
10
-2.9793006
20
1.2611852
10
-2.9649468
20
1.2392367
10
-2.9505917
20
1.2179679
10
-2.9362519
20
1.1973741
10
-2.9219439
20
1.1774504
10
-2.9076842
20
1.1581913
10
-2.8934889
20
1.1395912
10
-2.8793742
20
1.1216439
10
-2.8653559
20
1.1043431
10
-2.8514498
20
1.0876821
10
-2.8376715
20
1.0716539
10
-2.8240364
20
1.0562511
10
-2.8105596
20
1.0414662
10
-2.7972562
20
1.0272911
10
-2.7841409
20
1.0137176
10
-2.7712284
20
1.0007372
10
-2.7585331
20
0.988341
10
-2.7460691
20
0.9765198
10
-2.7338504
20
0.9652642
10
-2.7218907
20
0.9545645
10
-2.7102036
20
0.9444108
10
-2.6988022
20
0.9347926
10
-2.6876996
20
0.9256995
10
-2.6769086
20
0.9171208
10
-2.6664416
20
0.9090452
10
-2.656311
20
0.9014616
10
-2.6465287
20
0.8943584
10
-2.6371065
20
0.8877236
10
-2.6280559
20
0.8815454
10
-2.6193879
20
0.8758114
10
-2.6111136
20
0.8705092
10
-2.6032435
20
0.8656259
10
-2.595788
20
0.8611486
10
-2.5887572
20
0.8570643
10
-2.5821607
20
0.8533595
10
-2.576008
20
0.8500207
10
-2.5773184
20
0.8456275
10
-2.6200738
20
0.7020467
10
-2.6213801
20
0.6976523
10
-2.628357
20
0.6982232
10
-2.6359057
20
0.6987305
10
-2.6440255
20
0.6991577
10
-2.6527158
20
0.6994884
10
-2.6619752
20
0.6997059
10
-2.6718023
20
0.6997938
10
-2.682195
20
0.6997357
10
-2.6931511
20
0.6995151
10
-2.7046679
20
0.6991156
10
-2.7167425
20
0.6985208
10
-2.7293715
20
0.6977145
10
-2.7425511
20
0.6966804
10
-2.7562773
20
0.6954024
10
-2.7705456
20
0.6938643
10
-2.7853513
20
0.69205
10
-2.8006893
20
0.6899437
10
-2.816554
20
0.6875296
10
-2.8329396
20
0.6847918
10
-2.84984
20
0.6817147
10
-2.8672486
20
0.6782828
10
-2.8851586
20
0.6744806
10
-2.9035627
20
0.670293
10
-2.9224535
20
0.6657047
10
-2.941823
20
0.6607007
10
-2.9616631
20
0.6552661
10
-2.9819651
20
0.6493863
10
-3.0027203
20
0.6430467
10
-3.0239194
20
0.6362329
10
-3.0455529
20
0.6289307
10
-3.067611
20
0.621126
10
-3.0900835
20
0.612805
10
-3.1129599
20
0.603954
10
-3.1362296
20
0.5945596
10
-3.1598814
20
0.5846085
10
-3.1839038
20
0.5740876
10
-3.1960505
20
0.5686095
10
-3.199101
20
0.567217
10
-3.1998645
20
0.5668674
10
-3.2000554
20
0.56678
10
-3.2001509
20
0.5667362
10
-3.2001986
20
0.5667143
10
-3.2002135
20
0.5666866
10
-3.2173917
20
0.4592283
10
-3.2173862
20
0.4591973
10
-3.2173477
20
0.4591617
10
-3.2172706
20
0.4590903
10
-3.2171165
20
0.4589477
10
-3.2165
20
0.4583775
10
-3.2140356
20
0.4561035
10
-3.2042022
20
0.4471116
10
-3.1846568
20
0.429626
10
-3.165286
20
0.4127973
10
-3.1461048
20
0.3966167
10
-3.1271277
20
0.381075
10
-3.1083692
20
0.3661629
10
-3.0898436
20
0.3518705
10
-3.0715647
20
0.3381879
10
-3.0535463
20
0.3251048
10
-3.0358019
20
0.3126107
10
-3.0183446
20
0.3006947
10
-3.0011876
20
0.2893458
10
-2.9843434
20
0.2785527
10
-2.9678245
20
0.2683038
10
-2.951643
20
0.2585874
10
-2.935811
20
0.2493912
10
-2.9203398
20
0.2407032
10
-2.905241
20
0.2325107
10
-2.8905255
20
0.2248011
10
-2.876204
20
0.2175614
10
-2.8622871
20
0.2107784
10
-2.8487849
20
0.2044389
10
-2.8357071
20
0.1985293
10
-2.8230635
20
0.1930357
10
-2.8108631
20
0.1879444
10
-2.7991149
20
0.1832412
10
-2.7878274
20
0.1789118
10
-2.7770091
20
0.1749418
10
-2.7666678
20
0.1713166
10
-2.7568111
20
0.1680214
10
-2.7474464
20
0.1650414
10
-2.7385806
20
0.1623614
10
-2.7302204
20
0.1599663
10
-2.722372
20
0.1578409
10
-2.7150414
20
0.1559696
10
-2.7082342
20
0.154337
10
-2.708363
20
0.1497544
10
-2.7125
20
0
10
-2.7126245
20
-0.0045827
10
-2.7195114
20
-0.005837
10
-2.7269341
20
-0.0073007
10
-2.7348879
20
-0.0089896
10
-2.7433676
20
-0.0109195
10
-2.7523678
20
-0.0131059
10
-2.7618828
20
-0.0155644
10
-2.7719063
20
-0.0183104
10
-2.782432
20
-0.0213591
10
-2.793453
20
-0.0247258
10
-2.8049623
20
-0.0284254
10
-2.8169522
20
-0.0324728
10
-2.8294151
20
-0.0368828
10
-2.8423428
20
-0.0416699
10
-2.8557268
20
-0.0468486
10
-2.8695585
20
-0.052433
10
-2.8838287
20
-0.0584372
10
-2.898528
20
-0.0648752
10
-2.9136467
20
-0.0717607
10
-2.9291748
20
-0.079107
10
-2.945102
20
-0.0869277
10
-2.9614176
20
-0.0952357
10
-2.9781108
20
-0.104044
10
-2.9951703
20
-0.1133653
10
-3.0125847
20
-0.123212
10
-3.0303422
20
-0.1335963
10
-3.0484306
20
-0.1445303
10
-3.0668378
20
-0.1560258
10
-3.085551
20
-0.1680941
10
-3.1045574
20
-0.1807467
10
-3.1238439
20
-0.1939945
10
-3.143397
20
-0.2078483
10
-3.1632032
20
-0.2223185
10
-3.1832485
20
-0.2374155
10
-3.2035188
20
-0.253149
10
-3.2239997
20
-0.2695289
10
-3.2343146
20
-0.2779642
10
-3.2369008
20
-0.2800987
10
-3.2375478
20
-0.280634
10
-3.2377096
20
-0.2807679
10
-3.2377905
20
-0.2808349
10
-3.2378309
20
-0.2808683
10
-3.2378381
20
-0.280899
10
-3.2266188
20
-0.3891418
10
-3.2266054
20
-0.3891702
10
-3.226559
20
-0.3891947
10
-3.2264661
20
-0.3892437
10
-3.2262803
20
-0.3893416
10
-3.2255372
20
-0.3897328
10
-3.2225683
20
-0.3912915
10
-3.2107426
20
-0.3974319
10
-3.1873376
20
-0.409263
10
-3.1642713
20
-0.4205047
10
-3.1415558
20
-0.4311695
10
-3.1192029
20
-0.44127
10
-3.097224
20
-0.450819
10
-3.0756305
20
-0.4598296
10
-3.0544331
20
-0.468315
10
-3.0336425
20
-0.4762888
10
-3.013269
20
-0.4837646
10
-2.9933226
20
-0.4907563
10
-2.9738128
20
-0.4972779
10
-2.9547491
20
-0.5033436
10
-2.9361405
20
-0.5089679
10
-2.9179956
20
-0.5141652
10
-2.9003228
20
-0.5189504
10
-2.8831302
20
-0.5233382
10
-2.8664255
20
-0.5273436
10
-2.850216
20
-0.5309819
10
-2.8345088
20
-0.5342682
10
-2.8193105
20
-0.5372181
10
-2.8046276
20
-0.539847
10
-2.7904659
20
-0.5421705
10
-2.7768312
20
-0.5442044
10
-2.7637288
20
-0.5459645
10
-2.7511636
20
-0.5474668
10
-2.7391403
20
-0.5487273
10
-2.7276631
20
-0.549762
10
-2.7167359
20
-0.5505872
10
-2.7063622
20
-0.551219
10
-2.6965453
20
-0.5516738
10
-2.687288
20
-0.5519678
10
-2.6785927
20
-0.5521174
10
-2.6704616
20
-0.5521391
10
-2.6628965
20
-0.5520494
10
-2.6558987
20
-0.5518645
10
-2.654837
20
-0.5563243
10
-2.6200738
20
-0.7020467
10
-2.619008
20
-0.7065054
10
-2.6253356
20
-0.7094995
10
-2.6321265
20
-0.7128345
10
-2.6393721
20
-0.7165244
10
-2.6470634
20
-0.7205832
10
-2.6551911
20
-0.7250245
10
-2.6637456
20
-0.7298619
10
-2.6727169
20
-0.7351086
10
-2.6820948
20
-0.7407777
10
-2.6918689
20
-0.7468821
10
-2.7020285
20
-0.7534345
10
-2.7125623
20
-0.7604472
10
-2.7234591
20
-0.7679326
10
-2.7347073
20
-0.7759025
10
-2.746295
20
-0.7843687
10
-2.75821
20
-0.7933428
10
-2.7704399
20
-0.8028358
10
-2.7829721
20
-0.8128589
10
-2.7957935
20
-0.8234227
10
-2.8088911
20
-0.8345378
10
-2.8222515
20
-0.8462142
10
-2.8358609
20
-0.8584619
10
-2.8497056
20
-0.8712906
10
-2.8637713
20
-0.8847096
10
-2.8780438
20
-0.8987279
10
-2.8925085
20
-0.9133544
10
-2.9071507
20
-0.9285975
10
-2.9219554
20
-0.9444653
10
-2.9369074
20
-0.9609658
10
-2.9519915
20
-0.9781065
10
-2.967192
20
-0.9958946
10
-2.9824933
20
-1.014337
10
-2.9978794
20
-1.0334404
10
-3.0133343
20
-1.0532111
10
-3.0288418
20
-1.0736549
10
-3.0443854
20
-1.0947775
10
-3.0521656
20
-1.105595
10
-3.0541112
20
-1.1083262
10
-3.0545976
20
-1.1090106
10
-3.0547192
20
-1.1091819
10
-3.05478
20
-1.1092675
10
-3.0548104
20
-1.1093103
10
-3.0548095
20
-1.1093417
10
-3.0159571
20
-1.2109925
10
-3.0159369
20
-1.2110165
10
-3.0158856
20
-1.2110282
10
-3.0157832
20
-1.2110514
10
-3.0155784
20
-1.2110979
10
-3.0147595
20
-1.2112834
10
-3.0114882
20
-1.2120206
10
-2.9984763
20
-1.2148911
10
-2.9728067
20
-1.2202614
10
-2.9476167
20
-1.2251501
10
-2.922915
20
-1.2295722
10
-2.8987095
20
-1.2335432
10
-2.8750082
20
-1.2370783
10
-2.8518183
20
-1.240193
10
-2.829147
20
-1.242903
10
-2.8070011
20
-1.2452241
10
-2.7853869
20
-1.2471721
10
-2.7643105
20
-1.2487631
10
-2.7437776
20
-1.250013
10
-2.7237935
20
-1.250938
10
-2.7043633
20
-1.2515543
10
-2.6854915
20
-1.2518783
10
-2.6671825
20
-1.2519263
10
-2.6494401
20
-1.2517148
10
-2.6322679
20
-1.2512603
10
-2.615669
20
-1.2505793
10
-2.5996465
20
-1.2496883
10
-2.5842026
20
-1.2486041
10
-2.5693395
20
-1.2473431
10
-2.555059
20
-1.2459222
10
-2.5413625
20
-1.2443579
10
-2.528251
20
-1.2426669
10
-2.5157252
20
-1.2408659
10
-2.5037853
20
-1.2389716
10
-2.4924313
20
-1.2370005
10
-2.4816629
20
-1.2349694
10
-2.4714792
20
-1.2328948
10
-2.4618791
20
-1.2307932
10
-2.4528611
20
-1.2286812
10
-2.4444234
20
-1.2265753
10
-2.4365637
20
-1.2244918
10
-2.4292796
20
-1.2224471
10
-2.4225681
20
-1.2204574
10
-2.4203883
20
-1.2244904
10
-2.3490939
20
-1.35625
10
-2.3469104
20
-1.360281
10
-2.3522474
20
-1.3648107
10
-2.3579438
20
-1.3697897
10
-2.3639876
20
-1.3752292
10
-2.3703663
20
-1.3811404
10
-2.3770675
20
-1.387534
10
-2.3840785
20
-1.3944205
10
-2.3913861
20
-1.4018104
10
-2.3989773
20
-1.4097135
10
-2.4068384
20
-1.4181397
10
-2.4149559
20
-1.4270983
10
-2.4233158
20
-1.4365984
10
-2.4319039
20
-1.446649
10
-2.4407061
20
-1.4572586
10
-2.4497077
20
-1.4684355
10
-2.4588941
20
-1.4801875
10
-2.4682503
20
-1.4925225
10
-2.4777612
20
-1.5054476
10
-2.4874117
20
-1.5189699
10
-2.4971862
20
-1.5330961
10
-2.5070693
20
-1.5478326
10
-2.517045
20
-1.5631854
10
-2.5270976
20
-1.5791602
10
-2.537211
20
-1.5957624
10
-2.5473689
20
-1.6129971
10
-2.5575551
20
-1.6308689
10
-2.5677532
20
-1.6493823
10
-2.5779466
20
-1.6685412
10
-2.5881185
20
-1.6883493
10
-2.5982522
20
-1.7088099
10
-2.6083309
20
-1.7299261
10
-2.6183375
20
-1.7517004
10
-2.6282551
20
-1.7741351
10
-2.6380663
20
-1.7972321
10
-2.6477542
20
-1.8209929
10
-2.6573012
20
-1.8454188
10
-2.6620166
20
-1.8578813
10
-2.663189
20
-1.861023
10
-2.6634817
20
-1.8618101
10
-2.6635548
20
-1.8620069
10
-2.6635914
20
-1.8621054
10
-2.6636097
20
-1.8621546
10
-2.6636006
20
-1.8621847
10
-2.5997629
20
-1.950316
10
-2.5997372
20
-1.950334
10
-2.5996847
20
-1.950332
10
-2.5995797
20
-1.950328
10
-2.5993699
20
-1.9503198
10
-2.5985308
20
-1.9502871
10
-2.5951802
20
-1.9501525
10
-2.5818687
20
-1.9495574
10
-2.5556838
20
-1.948101
10
-2.530087
20
-1.9463034
10
-2.5050824
20
-1.9441817
10
-2.4806739
20
-1.9417524
10
-2.4568652
20
-1.9390327
10
-2.4336594
20
-1.9360393
10
-2.4110592
20
-1.9327893
10
-2.3890671
20
-1.9292995
10
-2.3676852
20
-1.925587
10
-2.3469152
20
-1.9216687
10
-2.3267585
20
-1.9175617
10
-2.307216
20
-1.9132829
10
-2.2882883
20
-1.9088493
10
-2.2699757
20
-1.9042779
10
-2.2522781
20
-1.8995856
10
-2.2351949
20
-1.8947892
10
-2.2187255
20
-1.8899057
10
-2.2028685
20
-1.8849518
10
-2.1876225
20
-1.8799443
10
-2.1729855
20
-1.8748998
10
-2.1589552
20
-1.869835
10
-2.1455291
20
-1.8647664
10
-2.1327042
20
-1.8597104
10
-2.1204771
20
-1.8546836
10
-2.1088442
20
-1.849702
10
-2.0978014
20
-1.8447819
10
-2.0873445
20
-1.8399394
10
-2.0774687
20
-1.8351904
10
-2.0681689
20
-1.8305508
10
-2.0594398
20
-1.8260361
10
-2.0512758
20
-1.8216621
10
-2.0436706
20
-1.8174441
10
-2.036618
20
-1.8133973
10
-2.0301113
20
-1.809537
10
-2.0241435
20
-1.8058781
10
-2.0209941
20
-1.8092095
10
-1.9180271
20
-1.9180271
10
-1.9148747
20
-1.9213556
10
-1.9188575
20
-1.9271124
10
-1.9230712
20
-1.933396
10
-1.9275011
20
-1.9402144
10
-1.9321326
20
-1.9475751
10
-1.9369507
20
-1.9554852
10
-1.9419404
20
-1.9639517
10
-1.9470864
20
-1.9729812
10
-1.9523734
20
-1.9825797
10
-1.9577858
20
-1.9927534
10
-1.963308
20
-2.0035076
10
-1.9689242
20
-2.0148478
10
-1.9746185
20
-2.0267787
10
-1.9803748
20
-2.0393049
10
-1.9861769
20
-2.0524307
10
-1.9920086
20
-2.06616
10
-1.9978534
20
-2.0804962
10
-2.0036951
20
-2.0954425
10
-2.0095169
20
-2.1110018
10
-2.0153022
20
-2.1271765
10
-2.0210344
20
-2.1439687
10
-2.0266966
20
-2.1613803
10
-2.0322721
20
-2.1794126
10
-2.0377439
20
-2.1980666
10
-2.0430951
20
-2.2173431
10
-2.0483086
20
-2.2372424
10
-2.0533676
20
-2.2577644
10
-2.0582549
20
-2.2789087
10
-2.0629535
20
-2.3006745
10
-2.0674464
20
-2.3230608
10
-2.0717164
20
-2.346066
10
-2.0757464
20
-2.3696883
10
-2.0795195
20
-2.3939254
10
-2.0830185
20
-2.4187747
10
-2.0862265
20
-2.4442333
10
-2.0891264
20
-2.4702978
10
-2.0904555
20
-2.4835562
10
-2.0907748
20
-2.4868942
10
-2.0908538
20
-2.4877302
10
-2.0908735
20
-2.4879393
10
-2.0908834
20
-2.4880438
10
-2.0908883
20
-2.4880961
10
-2.0908717
20
-2.4881229
10
-2.0063992
20
-2.5567288
10
-2.0063697
20
-2.5567395
10
-2.0063195
20
-2.556724
10
-2.0062192
20
-2.5566929
10
-2.0060186
20
-2.5566307
10
-2.0052166
20
-2.5563819
10
-2.002015
20
-2.5553848
10
-1.9893111
20
-2.5513647
10
-1.9643954
20
-2.5431807
10
-1.940136
20
-2.5348195
10
-1.9165325
20
-2.5262983
10
-1.8935845
20
-2.5176345
10
-1.871291
20
-2.5088453
10
-1.8496506
20
-2.4999478
10
-1.8286617
20
-2.4909591
10
-1.8083222
20
-2.4818963
10
-1.7886297
20
-2.4727762
10
-1.7695816
20
-2.4636158
10
-1.7511746
20
-2.4544318
10
-1.7334054
20
-2.4452408
10
-1.7162702
20
-2.4360595
10
-1.6997647
20
-2.4269042
10
-1.6838846
20
-2.4177913
10
-1.668625
20
-2.4087369
10
-1.6539807
20
-2.3997572
10
-1.6399462
20
-2.390868
10
-1.6265157
20
-2.3820851
10
-1.613683
20
-2.3734241
10
-1.6014417
20
-2.3649006
10
-1.5897849
20
-2.3565298
10
-1.5787056
20
-2.3483268
10
-1.5681962
20
-2.3403066
10
-1.5582489
20
-2.332484
10
-1.5488559
20
-2.3248735
10
-1.5400086
20
-2.3174895
10
-1.5316984
20
-2.3103463
10
-1.5239164
20
-2.3034578
10
-1.5166532
20
-2.2968377
10
-1.5098994
20
-2.2904997
10
-1.5036451
20
-2.284457
10
-1.4978802
20
-2.2787229
10
-1.4925943
20
-2.27331
10
-1.4877769
20
-2.2682312
10
-1.4838726
20
-2.2706339
10
-1.35625
20
-2.3490939
10
-1.3523435
20
-2.3514931
10
-1.3547007
20
-2.3580845
10
-1.3571444
20
-2.3652446
10
-1.3596587
20
-2.3729772
10
-1.3622272
20
-2.3812858
10
-1.3648339
20
-2.3901734
10
-1.3674622
20
-2.3996428
10
-1.3700959
20
-2.4096965
10
-1.3727185
20
-2.4203364
10
-1.3753134
20
-2.4315642
10
-1.377864
20
-2.4433813
10
-1.3803538
20
-2.4557886
10
-1.3827661
20
-2.4687868
10
-1.3850842
20
-2.482376
10
-1.3872914
20
-2.4965563
10
-1.389371
20
-2.511327
10
-1.3913062
20
-2.5266875
10
-1.3930804
20
-2.5426365
10
-1.3946768
20
-2.5591724
10
-1.3960787
20
-2.5762933
10
-1.3972694
20
-2.593997
10
-1.3982322
20
-2.6122807
10
-1.3989506
20
-2.6311416
10
-1.3994079
20
-2.6505763
10
-1.3995876
20
-2.6705809
10
-1.3994733
20
-2.6911515
10
-1.3990484
20
-2.7122836
10
-1.3982966
20
-2.7339723
10
-1.3972017
20
-2.7562126
10
-1.3957475
20
-2.7789989
10
-1.3939178
20
-2.8023254
10
-1.3916966
20
-2.8261858
10
-1.3890681
20
-2.8505736
10
-1.3860164
20
-2.8754818
10
-1.3825259
20
-2.9009032
10
-1.378581
20
-2.9268301
10
-1.3764333
20
-2.9399807
10
-1.3758778
20
-2.9432877
10
-1.3757378
20
-2.9441156
10
-1.3757027
20
-2.9443227
10
-1.3756851
20
-2.9444262
10
-1.3756763
20
-2.944478
10
-1.3756534
20
-2.9444996
10
-1.2763027
20
-2.9889047
10
-1.2762714
20
-2.9889074
10
-1.276227
20
-2.9888794
10
-1.2761381
20
-2.9888234
10
-1.2759604
20
-2.9887115
10
-1.2752502
20
-2.9882636
10
-1.2724157
20
-2.9864717
10
-1.2611852
20
-2.9793006
10
-1.2392367
20
-2.9649468
10
-1.2179679
20
-2.9505917
10
-1.1973741
20
-2.9362519
10
-1.1774504
20
-2.9219439
10
-1.1581913
20
-2.9076842
10
-1.1395912
20
-2.8934889
10
-1.1216439
20
-2.8793742
10
-1.1043431
20
-2.8653559
10
-1.0876821
20
-2.8514498
10
-1.0716539
20
-2.8376715
10
-1.0562511
20
-2.8240364
10
-1.0414662
20
-2.8105596
10
-1.0272911
20
-2.7972562
10
-1.0137176
20
-2.7841409
10
-1.0007372
20
-2.7712284
10
-0.988341
20
-2.7585331
10
-0.9765198
20
-2.7460691
10
-0.9652642
20
-2.7338504
10
-0.9545645
20
-2.7218907
10
-0.9444108
20
-2.7102036
10
-0.9347926
20
-2.6988022
10
-0.9256995
20
-2.6876996
10
-0.9171208
20
-2.6769086
10
-0.9090452
20
-2.6664416
10
-0.9014616
20
-2.656311
10
-0.8943584
20
-2.6465287
10
-0.8877236
20
-2.6371065
10
-0.8815454
20
-2.6280559
10
-0.8758114
20
-2.6193879
10
-0.8705092
20
-2.6111136
10
-0.8656259
20
-2.6032435
10
-0.8611486
20
-2.595788
10
-0.8570643
20
-2.5887572
10
-0.8533595
20
-2.5821607
10
-0.8500207
20
-2.576008
10
-0.8456275
20
-2.5773184
10
-0.7020467
20
-2.6200738
10
-0.6976523
20
-2.6213801
10
-0.6982232
20
-2.628357
10
-0.6987305
20
-2.6359057
10
-0.6991577
20
-2.6440255
10
-0.6994884
20
-2.6527158
10
-0.6997059
20
-2.6619752
10
-0.6997938
20
-2.6718023
10
-0.6997357
20
-2.682195
10
-0.6995151
20
-2.6931511
10
-0.6991156
20
-2.7046679
10
-0.6985208
20
-2.7167425
10
-0.6977145
20
-2.7293715
10
-0.6966804
20
-2.7425511
10
-0.6954024
20
-2.7562773
10
-0.6938643
20
-2.7705456
10
-0.69205
20
-2.7853513
10
-0.6899437
20
-2.8006893
10
-0.6875296
20
-2.816554
10
-0.6847918
20
-2.8329396
10
-0.6817147
20
-2.84984
10
-0.6782828
20
-2.8672486
10
-0.6744806
20
-2.8851586
10
-0.670293
20
-2.9035627
10
-0.6657047
20
-2.9224535
10
-0.6607007
20
-2.941823
10
-0.6552661
20
-2.9616631
10
-0.6493863
20
-2.9819651
10
-0.6430467
20
-3.0027203
10
-0.6362329
20
-3.0239194
10
-0.6289307
20
-3.0455529
10
-0.621126
20
-3.067611
10
-0.612805
20
-3.0900835
10
-0.603954
20
-3.1129599
10
-0.5945596
20
-3.1362296
10
-0.5846085
20
-3.1598814
10
-0.5740876
20
-3.1839038
10
-0.5686095
20
-3.1960505
10
-0.567217
20
-3.199101
10
-0.5668674
20
-3.1998645
10
-0.56678
20
-3.2000554
10
-0.5667362
20
-3.2001509
10
-0.5667143
20
-3.2001986
10
-0.5666866
20
-3.2002135
10
-0.4592283
20
-3.2173917
10
-0.4591973
20
-3.2173862
10
-0.4591617
20
-3.2173477
10
-0.4590903
20
-3.2172706
10
-0.4589477
20
-3.2171165
10
-0.4583775
20
-3.2165
10
-0.4561035
20
-3.2140356
10
-0.4471116
20
-3.2042022
10
-0.429626
20
-3.1846568
10
-0.4127973
20
-3.165286
10
-0.3966167
20
-3.1461048
10
-0.381075
20
-3.1271277
10
-0.3661629
20
-3.1083692
10
-0.3518705
20
-3.0898436
10
-0.3381879
20
-3.0715647
10
-0.3251048
20
-3.0535463
10
-0.3126107
20
-3.0358019
10
-0.3006947
20
-3.0183446
10
-0.2893458
20
-3.0011876
10
-0.2785527
20
-2.9843434
10
-0.2683038
20
-2.9678245
10
-0.2585874
20
-2.951643
10
-0.2493912
20
-2.935811
10
-0.2407032
20
-2.9203398
10
-0.2325107
20
-2.905241
10
-0.2248011
20
-2.8905255
10
-0.2175614
20
-2.876204
10
-0.2107784
20
-2.8622871
10
-0.2044389
20
-2.8487849
10
-0.1985293
20
-2.8357071
10
-0.1930357
20
-2.8230635
10
-0.1879444
20
-2.8108631
10
-0.1832412
20
-2.7991149
10
-0.1789118
20
-2.7878274
10
-0.1749418
20
-2.7770091
10
-0.1713166
20
-2.7666678
10
-0.1680214
20
-2.7568111
10
-0.1650414
20
-2.7474464
10
-0.1623614
20
-2.7385806
10
-0.1599663
20
-2.7302204
10
-0.1578409
20
-2.722372
10
-0.1559696
20
-2.7150414
10
-0.154337
20
-2.7082342
10
-0.1497544
20
-2.708363
10
0
20
-2.7125
10
0.0045827
20
-2.7126245
10
0.005837
20
-2.7195114
10
0.0073007
20
-2.7269341
10
0.0089896
20
-2.7348879
10
0.0109195
20
-2.7433676
10
0.0131059
20
-2.7523678
10
0.0155644
20
-2.7618828
10
0.0183104
20
-2.7719063
10
0.0213591
20
-2.782432
10
0.0247258
20
-2.793453
10
0.0284254
20
-2.8049623
10
0.0324728
20
-2.8169522
10
0.0368828
20
-2.8294151
10
0.0416699
20
-2.8423428
10
0.0468486
20
-2.8557268
10
0.052433
20
-2.8695585
10
0.0584372
20
-2.8838287
10
0.0648752
20
-2.898528
10
0.0717607
20
-2.9136467
10
0.079107
20
-2.9291748
10
0.0869277
20
-2.945102
10
0.0952357
20
-2.9614176
10
0.104044
20
-2.9781108
10
0.1133653
20
-2.9951703
10
0.123212
20
-3.0125847
10
0.1335963
20
-3.0303422
10
0.1445303
20
-3.0484306
10
0.1560258
20
-3.0668378
10
0.1680941
20
-3.085551
10
0.1807467
20
-3.1045574
10
0.1939945
20
-3.1238439
10
0.2078483
20
-3.143397
10
0.2223185
20
-3.1632032
10
0.2374155
20
-3.1832485
10
0.253149
20
-3.2035188
10
0.2695289
20
-3.2239997
10
0.2779642
20
-3.2343146
10
0.2800987
20
-3.2369008
10
0.280634
20
-3.2375478
10
0.2807679
20
-3.2377096
10
0.2808349
20
-3.2377905
10
0.2808683
20
-3.2378309
10
0.280899
20
-3.2378381
10
0.3891418
20
-3.2266188
10
0.3891702
20
-3.2266054
10
0.3891947
20
-3.226559
10
0.3892437
20
-3.2264661
10
0.3893416
20
-3.2262803
10
0.3897328
20
-3.2255372
10
0.3912915
20
-3.2225683
10
0.3974319
20
-3.2107426
10
0.409263
20
-3.1873376
10
0.4205047
20
-3.1642713
10
0.4311695
20
-3.1415558
10
0.44127
20
-3.1192029
10
0.450819
20
-3.097224
10
0.4598296
20
-3.0756305
10
0.468315
20
-3.0544331
10
0.4762888
20
-3.0336425
10
0.4837646
20
-3.013269
10
0.4907563
20
-2.9933226
10
0.4972779
20
-2.9738128
10
0.5033436
20
-2.9547491
10
0.5089679
20
-2.9361405
10
0.5141652
20
-2.9179956
10
0.5189504
20
-2.9003228
10
0.5233382
20
-2.8831302
10
0.5273436
20
-2.8664255
10
0.5309819
20
-2.850216
10
0.5342682
20
-2.8345088
10
0.5372181
20
-2.8193105
10
0.539847
20
-2.8046276
10
0.5421705
20
-2.7904659
10
0.5442044
20
-2.7768312
10
0.5459645
20
-2.7637288
10
0.5474668
20
-2.7511636
10
0.5487273
20
-2.7391403
10
0.549762
20
-2.7276631
10
0.5505872
20
-2.7167359
10
0.551219
20
-2.7063622
10
0.5516738
20
-2.6965453
10
0.5519678
20
-2.687288
10
0.5521174
20
-2.6785927
10
0.5521391
20
-2.6704616
10
0.5520494
20
-2.6628965
10
0.5518645
20
-2.6558987
10
0.5563243
20
-2.654837
10
0.7020467
20
-2.6200738
10
0.7065054
20
-2.619008
10
0.7094995
20
-2.6253356
10
0.7128345
20
-2.6321265
10
0.7165244
20
-2.6393721
10
0.7205832
20
-2.6470634
10
0.7250245
20
-2.6551911
10
0.7298619
20
-2.6637456
10
0.7351086
20
-2.6727169
10
0.7407777
20
-2.6820948
10
0.7468821
20
-2.6918689
10
0.7534345
20
-2.7020285
10
0.7604472
20
-2.7125623
10
0.7679326
20
-2.7234591
10
0.7759025
20
-2.7347073
10
0.7843687
20
-2.746295
10
0.7933428
20
-2.75821
10
0.8028358
20
-2.7704399
10
0.8128589
20
-2.7829721
10
0.8234227
20
-2.7957935
10
0.8345378
20
-2.8088911
10
0.8462142
20
-2.8222515
10
0.8584619
20
-2.8358609
10
0.8712906
20
-2.8497056
10
0.8847096
20
-2.8637713
10
0.8987279
20
-2.8780438
10
0.9133544
20
-2.8925085
10
0.9285975
20
-2.9071507
10
0.9444653
20
-2.9219554
10
0.9609658
20
-2.9369074
10
0.9781065
20
-2.9519915
10
0.9958946
20
-2.967192
10
1.014337
20
-2.9824933
10
1.0334404
20
-2.9978794
10
1.0532111
20
-3.0133343
10
1.0736549
20
-3.0288418
10
1.0947775
20
-3.0443854
10
1.105595
20
-3.0521656
10
1.1083262
20
-3.0541112
10
1.1090106
20
-3.0545976
10
1.1091819
20
-3.0547192
10
1.1092675
20
-3.05478
10
1.1093103
20
-3.0548104
10
1.1093417
20
-3.0548095
10
1.2109925
20
-3.0159571
10
1.2110165
20
-3.0159369
10
1.2110282
20
-3.0158856
10
1.2110514
20
-3.0157832
10
1.2110979
20
-3.0155784
10
1.2112834
20
-3.0147595
10
1.2120206
20
-3.0114882
10
1.2148911
20
-2.9984763
10
1.2202614
20
-2.9728067
10
1.2251501
20
-2.9476167
10
1.2295722
20
-2.922915
10
1.2335432
20
-2.8987095
10
1.2370783
20
-2.8750082
10
1.240193
20
-2.8518183
10
1.242903
20
-2.829147
10
1.2452241
20
-2.8070011
10
1.2471721
20
-2.7853869
10
1.2487631
20
-2.7643105
10
1.250013
20
-2.7437776
10
1.250938
20
-2.7237935
10
1.2515543
20
-2.7043633
10
1.2518783
20
-2.6854915
10
1.2519263
20
-2.6671825
10
1.2517148
20
-2.6494401
10
1.2512603
20
-2.6322679
10
1.2505793
20
-2.615669
10
1.2496883
20
-2.5996465
10
1.2486041
20
-2.5842026
10
1.2473431
20
-2.5693395
10
1.2459222
20
-2.555059
10
1.2443579
20
-2.5413625
10
1.2426669
20
-2.528251
10
1.2408659
20
-2.5157252
10
1.2389716
20
-2.5037853
10
1.2370005
20
-2.4924313
10
1.2349694
20
-2.4816629
10
1.2328948
20
-2.4714792
10
1.2307932
20
-2.4618791
10
1.2286812
20
-2.4528611
10
1.2265753
20
-2.4444234
10
1.2244918
20
-2.4365637
10
1.2224471
20
-2.4292796
10
1.2204574
20
-2.4225681
10
1.2244904
20
-2.4203883
10
1.35625
20
-2.3490939
10
1.360281
20
-2.3469104
10
1.3648107
20
-2.3522474
10
1.3697897
20
-2.3579438
10
1.3752292
20
-2.3639876
10
1.3811404
20
-2.3703663
10
1.387534
20
-2.3770675
10
1.3944205
20
-2.3840785
10
1.4018104
20
-2.3913861
10
1.4097135
20
-2.3989773
10
1.4181397
20
-2.4068384
10
1.4270983
20
-2.4149559
10
1.4365984
20
-2.4233158
10
1.446649
20
-2.4319039
10
1.4572586
20
-2.4407061
10
1.4684355
20
-2.4497077
10
1.4801875
20
-2.4588941
10
1.4925225
20
-2.4682503
10
1.5054476
20
-2.4777612
10
1.5189699
20
-2.4874117
10
1.5330961
20
-2.4971862
10
1.5478326
20
-2.5070693
10
1.5631854
20
-2.517045
10
1.5791602
20
-2.5270976
10
1.5957624
20
-2.537211
10
1.6129971
20
-2.5473689
10
1.6308689
20
-2.5575551
10
1.6493823
20
-2.5677532
10
1.6685412
20
-2.5779466
10
1.6883493
20
-2.5881185
10
1.7088099
20
-2.5982522
10
1.7299261
20
-2.6083309
10
1.7517004
20
-2.6183375
10
1.7741351
20
-2.6282551
10
1.7972321
20
-2.6380663
10
1.8209929
20
-2.6477542
10
1.8454188
20
-2.6573012
10
1.8578813
20
-2.6620166
10
1.861023
20
-2.663189
10
1.8618101
20
-2.6634817
10
1.8620069
20
-2.6635548
10
1.8621054
20
-2.6635914
10
1.8621546
20
-2.6636097
10
1.8621847
20
-2.6636006
10
1.950316
20
-2.5997629
10
1.950334
20
-2.5997372
10
1.950332
20
-2.5996847
10
1.950328
20
-2.5995797
10
1.9503198
20
-2.5993699
10
1.9502871
20
-2.5985308
10
1.9501525
20
-2.5951802
10
1.9495574
20
-2.5818687
10
1.948101
20
-2.5556838
10
1.9463034
20
-2.530087
10
1.9441817
20
-2.5050824
10
1.9417524
20
-2.4806739
10
1.9390327
20
-2.4568652
10
1.9360393
20
-2.4336594
10
1.9327893
20
-2.4110592
10
1.9292995
20
-2.3890671
10
1.925587
20
-2.3676852
10
1.9216687
20
-2.3469152
10
1.9175617
20
-2.3267585
10
1.9132829
20
-2.307216
10
1.9088493
20
-2.2882883
10
1.9042779
20
-2.2699757
10
1.8995856
20
-2.2522781
10
1.8947892
20
-2.2351949
10
1.8899057
20
-2.2187255
10
1.8849518
20
-2.2028685
10
1.8799443
20
-2.1876225
10
1.8748998
20
-2.1729855
10
1.869835
20
-2.1589552
10
1.8647664
20
-2.1455291
10
1.8597104
20
-2.1327042
10
1.8546836
20
-2.1204771
10
1.849702
20
-2.1088442
10
1.8447819
20
-2.0978014
10
1.8399394
20
-2.0873445
10
1.8351904
20
-2.0774687
10
1.8305508
20
-2.0681689
10
1.8260361
20
-2.0594398
10
1.8216621
20
-2.0512758
10
1.8174441
20
-2.0436706
10
1.8133973
20
-2.036618
10
1.809537
20
-2.0301113
10
1.8058781
20
-2.0241435
10
1.8092095
20
-2.0209941
10
1.9180271
20
-1.9180271
10
1.9213556
20
-1.9148747
10
1.9271124
20
-1.9188575
10
1.933396
20
-1.9230712
10
1.9402144
20
-1.9275011
10
1.9475751
20
-1.9321326
10
1.9554852
20
-1.9369507
10
1.9639517
20
-1.9419404
10
1.9729812
20
-1.9470864
10
1.9825797
20
-1.9523734
10
1.9927534
20
-1.9577858
10
2.0035076
20
-1.963308
10
2.0148478
20
-1.9689242
10
2.0267787
20
-1.9746185
10
2.0393049
20
-1.9803748
10
2.0524307
20
-1.9861769
10
2.06616
20
-1.9920086
10
2.0804962
20
-1.9978534
10
2.0954425
20
-2.0036951
10
2.1110018
20
-2.0095169
10
2.1271765
20
-2.0153022
10
2.1439687
20
-2.0210344
10
2.1613803
20
-2.0266966
10
2.1794126
20
-2.0322721
10
2.1980666
20
-2.0377439
10
2.2173431
20
-2.0430951
10
2.2372424
20
-2.0483086
10
2.2577644
20
-2.0533676
10
2.2789087
20
-2.0582549
10
2.3006745
20
-2.0629535
10
2.3230608
20
-2.0674464
10
2.346066
20
-2.0717164
10
2.3696883
20
-2.0757464
10
2.3939254
20
-2.0795195
10
2.4187747
20
-2.0830185
10
2.4442333
20
-2.0862265
10
2.4702978
20
-2.0891264
10
2.4835562
20
-2.0904555
10
2.4868942
20
-2.0907748
10
2.4877302
20
-2.0908538
10
2.4879393
20
-2.0908735
10
2.4880438
20
-2.0908834
10
2.4880961
20
-2.0908883
10
2.4881229
20
-2.0908717
10
2.5567288
20
-2.0063992
10
2.5567395
20
-2.0063697
10
2.556724
20
-2.0063195
10
2.5566929
20
-2.0062192
10
2.5566307
20
-2.0060186
10
2.5563819
20
-2.0052166
10
2.5553848
20
-2.002015
10
2.5513647
20
-1.9893111
10
2.5431807
20
-1.9643954
10
2.5348195
20
-1.940136
10
2.5262983
20
-1.9165325
10
2.5176345
20
-1.8935845
10
2.5088453
20
-1.871291
10
2.4999478
20
-1.8496506
10
2.4909591
20
-1.8286617
10
2.4818963
20
-1.8083222
10
2.4727762
20
-1.7886297
10
2.4636158
20
-1.7695816
10
2.4544318
20
-1.7511746
10
2.4452408
20
-1.7334054
10
2.4360595
20
-1.7162702
10
2.4269042
20
-1.6997647
10
2.4177913
20
-1.6838846
10
2.4087369
20
-1.668625
10
2.3997572
20
-1.6539807
10
2.390868
20
-1.6399462
10
2.3820851
20
-1.6265157
10
2.3734241
20
-1.613683
10
2.3649006
20
-1.6014417
10
2.3565298
20
-1.5897849
10
2.3483268
20
-1.5787056
10
2.3403066
20
-1.5681962
10
2.332484
20
-1.5582489
10
2.3248735
20
-1.5488559
10
2.3174895
20
-1.5400086
10
2.3103463
20
-1.5316984
10
2.3034578
20
-1.5239164
10
2.2968377
20
-1.5166532
10
2.2904997
20
-1.5098994
10
2.284457
20
-1.5036451
10
2.2787229
20
-1.4978802
10
2.27331
20
-1.4925943
10
2.2682312
20
-1.4877769
10
2.2706339
20
-1.4838726
10
2.3490939
20
-1.35625
10
2.3514931
20
-1.3523435
10
2.3580845
20
-1.3547007
10
2.3652446
20
-1.3571444
10
2.3729772
20
-1.3596587
10
2.3812858
20
-1.3622272
10
2.3901734
20
-1.3648339
10
2.3996428
20
-1.3674622
10
2.4096965
20
-1.3700959
10
2.4203364
20
-1.3727185
10
2.4315642
20
-1.3753134
10
2.4433813
20
-1.377864
10
2.4557886
20
-1.3803538
10
2.4687868
20
-1.3827661
10
2.482376
20
-1.3850842
10
2.4965563
20
-1.3872914
10
2.511327
20
-1.389371
10
2.5266875
20
-1.3913062
10
2.5426365
20
-1.3930804
10
2.5591724
20
-1.3946768
10
2.5762933
20
-1.3960787
10
2.593997
20
-1.3972694
10
2.6122807
20
-1.3982322
10
2.6311416
20
-1.3989506
10
2.6505763
20
-1.3994079
10
2.6705809
20
-1.3995876
10
2.6911515
20
-1.3994733
10
2.7122836
20
-1.3990484
10
2.7339723
20
-1.3982966
10
2.7562126
20
-1.3972017
10
2.7789989
20
-1.3957475
10
2.8023254
20
-1.3939178
10
2.8261858
20
-1.3916966
10
2.8505736
20
-1.3890681
10
2.8754818
20
-1.3860164
10
2.9009032
20
-1.3825259
10
2.9268301
20
-1.378581
10
2.9399807
20
-1.3764333
10
2.9432877
20
-1.3758778
10
2.9441156
20
-1.3757378
10
2.9443227
20
-1.3757027
10
2.9444262
20
-1.3756851
10
2.944478
20
-1.3756763
10
2.9444996
20
-1.3756534
10
2.9889047
20
-1.2763027
10
2.9889074
20
-1.2762714
10
2.9888794
20
-1.276227
10
2.9888234
20
-1.2761381
10
2.9887115
20
-1.2759604
10
2.9882636
20
-1.2752502
10
2.9864717
20
-1.2724157
10
2.9793006
20
-1.2611852
10
2.9649468
20
-1.2392367
10
2.9505917
20
-1.2179679
10
2.9362519
20
-1.1973741
10
2.9219439
20
-1.1774504
10
2.9076842
20
-1.1581913
10
2.8934889
20
-1.1395912
10
2.8793742
20
-1.1216439
10
2.8653559
20
-1.1043431
10
2.8514498
20
-1.0876821
10
2.8376715
20
-1.0716539
10
2.8240364
20
-1.0562511
10
2.8105596
20
-1.0414662
10
2.7972562
20
-1.0272911
10
2.7841409
20
-1.0137176
10
2.7712284
20
-1.0007372
10
2.7585331
20
-0.988341
10
2.7460691
20
-0.9765198
10
2.7338504
20
-0.9652642
10
2.7218907
20
-0.9545645
10
2.7102036
20
-0.9444108
10
2.6988022
20
-0.9347926
10
2.6876996
20
-0.9256995
10
2.6769086
20
-0.9171208
10
2.6664416
20
-0.9090452
10
2.656311
20
-0.9014616
10
2.6465287
20
-0.8943584
10
2.6371065
20
-0.8877236
10
2.6280559
20
-0.8815454
10
2.6193879
20
-0.8758114
10
2.6111136
20
-0.8705092
10
2.6032435
20
-0.8656259
10
2.595788
20
-0.8611486
10
2.5887572
20
-0.8570643
10
2.5821607
20
-0.8533595
10
2.576008
20
-0.8500207
10
2.5773184
20
-0.8456275
10
2.6200738
20
-0.7020467
10
2.6213801
20
-0.6976523
10
2.628357
20
-0.6982232
10
2.6359057
20
-0.6987305
10
2.6440255
20
-0.6991577
10
2.6527158
20
-0.6994884
10
2.6619752
20
-0.6997059
10
2.6718023
20
-0.6997938
10
2.682195
20
-0.6997357
10
2.6931511
20
-0.6995151
10
2.7046679
20
-0.6991156
10
2.7167425
20
-0.6985208
10
2.7293715
20
-0.6977145
10
2.7425511
20
-0.6966804
10
2.7562773
20
-0.6954024
10
2.7705456
20
-0.6938643
10
2.7853513
20
-0.69205
10
2.8006893
20
-0.6899437
10
2.816554
20
-0.6875296
10
2.8329396
20
-0.6847918
10
2.84984
20
-0.6817147
10
2.8672486
20
-0.6782828
10
2.8851586
20
-0.6744806
10
2.9035627
20
-0.670293
10
2.9224535
20
-0.6657047
10
2.941823
20
-0.6607007
10
2.9616631
20
-0.6552661
10
2.9819651
20
-0.6493863
10
3.0027203
20
-0.6430467
10
3.0239194
20
-0.6362329
10
3.0455529
20
-0.6289307
10
3.067611
20
-0.621126
10
3.0900835
20
-0.612805
10
3.1129599
20
-0.603954
10
3.1362296
20
-0.5945596
10
3.1598814
20
-0.5846085
10
3.1839038
20
-0.5740876
10
3.1960505
20
-0.5686095
10
3.199101
20
-0.567217
10
3.1998645
20
-0.5668674
10
3.2000554
20
-0.56678
10
3.2001509
20
-0.5667362
10
3.2001986
20
-0.5667143
10
3.2002135
20
-0.5666866
10
3.2173917
20
-0.4592283
10
3.2173862
20
-0.4591973
10
3.2173477
20
-0.4591617
10
3.2172706
20
-0.4590903
10
3.2171165
20
-0.4589477
10
3.2165
20
-0.4583775
10
3.2140356
20
-0.4561035
10
3.2042022
20
-0.4471116
10
3.1846568
20
-0.429626
10
3.165286
20
-0.4127973
10
3.1461048
20
-0.3966167
10
3.1271277
20
-0.381075
10
3.1083692
20
-0.3661629
10
3.0898436
20
-0.3518705
10
3.0715647
20
-0.3381879
10
3.0535463
20
-0.3251048
10
3.0358019
20
-0.3126107
10
3.0183446
20
-0.3006947
10
3.0011876
20
-0.2893458
10
2.9843434
20
-0.2785527
10
2.9678245
20
-0.2683038
10
2.951643
20
-0.2585874
10
2.935811
20
-0.2493912
10
2.9203398
20
-0.2407032
10
2.905241
20
-0.2325107
10
2.8905255
20
-0.2248011
10
2.876204
20
-0.2175614
10
2.8622871
20
-0.2107784
10
2.8487849
20
-0.2044389
10
2.8357071
20
-0.1985293
10
2.8230635
20
-0.1930357
10
2.8108631
20
-0.1879444
10
2.7991149
20
-0.1832412
10
2.7878274
20
-0.1789118
10
2.7770091
20
-0.1749418
10
2.7666678
20
-0.1713166
10
2.7568111
20
-0.1680214
10
2.7474464
20
-0.1650414
10
2.7385806
20
-0.1623614
10
2.7302204
20
-0.1599663
10
2.722372
20
-0.1578409
10
2.7150414
20
-0.1559696
10
2.7082342
20
-0.154337
10
2.708363
20
-0.1497544
8
gear
0
LWPOLYLINE
5
1004
100
AcDbEntity
100
AcDbPolyline
90
5
70
0
43
0
10
1.5317255
20
1.8638598
10
1.5084301
20
1.8827625
10
1.4849015
20
1.9013742
10
1.4611433
20
1.9196918
10
1.4371591
20
1.9377125
8
gear_texts
0
LWPOLYLINE
5
1005
100
AcDbEntity
100
AcDbPolyline
90
2
70
0
43
0
10
1.4479713
20
1.8540861
10
1.5218317
20
1.9486622
8
gear_texts
0
LWPOLYLINE
5
1006
100
AcDbEntity
100
AcDbPolyline
90
5
70
0
43
0
10
1.5698202
20
1.9102148
10
1.5271878
20
1.9061751
10
1.4849015
20
1.9013742
10
1.4429736
20
1.89582
10
1.4014163
20
1.8895207
8
gear_texts
0
LWPOLYLINE
5
1007
100
AcDbEntity
100
AcDbPolyline
90
5
70
0
43
0
10
1.4936308
20
1.8175047
10
1.4896725
20
1.8593499
10
1.4849015
20
1.9013742
10
1.479313
20
1.9435636
10
1.4729019
20
1.9859044
8
gear_texts
0
LWPOLYLINE
5
1008
100
AcDbEntity
100
AcDbPolyline
90
3
70
0
43
0
10
1.6168378
20
1.870586
10
1.6598719
20
1.8727871
10
1.5404805
20
1.7380811
8
gear_texts
0
LWPOLYLINE
5
1009
100
AcDbEntity
100
AcDbPolyline
90
3
70
0
43
0
10
1.5619743
20
1.718791
10
1.5404805
20
1.7380811
10
1.5187485
20
1.7571025
8
gear_texts
0
LWPOLYLINE
5
1010
100
AcDbEntity
100
AcDbPolyline
90
7
70
0
43
0
10
1.9198522
20
1.6052021
10
1.7817609
20
1.489743
10
1.7972595
20
1.5410757
10
1.8117518
20
1.5930197
10
1.8252249
20
1.6455578
10
1.8376663
20
1.6986727
10
1.7054865
20
1.5764904
8
gear_texts
0
LWPOLYLINE
5
1011
100
AcDbEntity
100
AcDbPolyline
90
5
70
0
43
0
10
1.9853949
20
1.4226782
10
1.9675506
20
1.4472564
10
1.9494019
20
1.4716108
10
1.9309519
20
1.4957377
10
1.9122032
20
1.5196332
8
gear_texts
0
LWPOLYLINE
5
1012
100
AcDbEntity
100
AcDbPolyline
90
5
70
0
43
0
10
1.9366237
20
1.3877301
10
1.9192177
20
1.4117045
10
1.9015149
20
1.4354607
10
1.883518
20
1.4589949
10
1.8652299
20
1.4823035
8
gear_texts
0
LWPOLYLINE
5
1013
100
AcDbEntity
100
AcDbPolyline
90
15
70
0
43
0
10
1.9834396
20
1.2082937
10
1.9682612
20
1.2328642
10
1.9527785
20
1.257244
10
1.9369938
20
1.2814295
10
1.9209095
20
1.3054167
10
1.9705348
20
1.3391412
10
2.0120549
20
1.3310866
10
2.0284513
20
1.3059639
10
2.044534
20
1.2806393
10
2.0859208
20
1.2707244
10
2.1115412
20
1.2863321
10
2.1208067
20
1.3284145
10
2.104124
20
1.3546838
10
2.087116
20
1.3807437
10
2.0449726
20
1.3897278
8
gear_texts
0
LWPOLYLINE
5
1014
100
AcDbEntity
100
AcDbPolyline
90
9
70
0
43
0
10
2.1214152
20
1.084391
10
2.1077668
20
1.1106868
10
2.0937926
20
1.1368108
10
2.0794946
20
1.1627591
10
2.064875
20
1.1885275
10
2.1144074
20
1.1822807
10
2.1640983
20
1.1749829
10
2.2139293
20
1.1666291
10
2.0546856
20
1.0827157
8
gear_texts
0
LWPOLYLINE
5
1015
100
AcDbEntity
100
AcDbPolyline
90
11
70
0
43
0
10
2.235455
20
0.9071369
10
2.2465623
20
0.8792691
10
2.2573222
20
0.8512653
10
2.2677331
20
0.8231298
10
2.3061182
20
0.8047515
10
2.3344431
20
0.8146359
10
2.3523325
20
0.8538373
10
2.3415332
20
0.8830223
10
2.3303719
20
0.9120708
10
2.3188502
20
0.9409783
10
2.1520598
20
0.8732955
8
gear_texts
0
LWPOLYLINE
5
1016
100
AcDbEntity
100
AcDbPolyline
90
2
70
0
43
0
10
2.2111698
20
0.7104466
10
2.3254175
20
0.7471543
8
gear_texts
0
LWPOLYLINE
5
1017
100
AcDbEntity
100
AcDbPolyline
90
2
70
0
43
0
10
2.3539795
20
0.7563312
10
2.3825414
20
0.7655081
8
gear_texts
0
LWPOLYLINE
5
1018
100
AcDbEntity
100
AcDbPolyline
90
4
70
0
43
0
10
2.2871428
20
0.5506669
10
2.2510415
20
0.5716803
10
2.2727416
20
0.6073731
10
2.417656
20
0.6461004
8
gear_texts
0
LWPOLYLINE
5
1019
100
AcDbEntity
100
AcDbPolyline
90
5
70
0
43
0
10
2.3746424
20
0.5717339
10
2.3673494
20
0.6012182
10
2.3596902
20
0.6306095
10
2.3516662
20
0.6599032
10
2.3432785
20
0.689095
8
gear_texts
0
LWPOLYLINE
5
1020
100
AcDbEntity
100
AcDbPolyline
90
10
70
0
43
0
10
2.2922187
20
0.3738176
10
2.2873931
20
0.4022923
10
2.2822138
20
0.4307047
10
2.2766815
20
0.4590505
10
2.3001294
20
0.4936202
10
2.3587937
20
0.5062099
10
2.3943142
20
0.4827689
10
2.4001323
20
0.4529585
10
2.4055792
20
0.4230781
10
2.4106541
20
0.3931322
8
gear_texts
0
LWPOLYLINE
5
1021
100
AcDbEntity
100
AcDbPolyline
90
6
70
0
43
0
10
2.3602454
20
0.324881
10
2.3938712
20
0.2992274
10
2.4272193
20
0.2727872
10
2.4304237
20
0.2425839
10
2.4033659
20
0.2097349
10
2.3137066
20
0.2019106
8
gear_texts
0
LWPOLYLINE
5
1022
100
AcDbEntity
100
AcDbPolyline
90
2
70
0
43
0
10
2.3008059
20
0.3166993
10
2.4791245
20
0.3412444
8
gear_texts
0
LWPOLYLINE
5
1023
100
AcDbEntity
100
AcDbPolyline
90
10
70
0
43
0
10
2.3225
20
0
10
2.3223204
20
-0.0288801
10
2.3217818
20
-0.0577557
10
2.3208841
20
-0.0866224
10
2.3495904
20
-0.1169673
10
2.4694419
20
-0.1229337
10
2.5007588
20
-0.0933359
10
2.5017261
20
-0.0622319
10
2.5023065
20
-0.0311184
10
2.5025
20
0
8
gear_texts
0
LWPOLYLINE
5
1024
100
AcDbEntity
100
AcDbPolyline
90
2
70
0
43
0
10
2.5023065
20
-0.0311184
10
2.3223204
20
-0.0288801
8
gear_texts
0
LWPOLYLINE
5
1025
100
AcDbEntity
100
AcDbPolyline
90
5
70
0
43
0
10
2.4236395
20
-0.3029484
10
2.4272193
20
-0.2727872
10
2.4304237
20
-0.2425839
10
2.4332523
20
-0.212343
10
2.4357046
20
-0.1820693
8
gear_texts
0
LWPOLYLINE
5
1026
100
AcDbEntity
100
AcDbPolyline
90
5
70
0
43
0
10
2.3641028
20
-0.2955065
10
2.3675946
20
-0.2660862
10
2.3707203
20
-0.2366248
10
2.3734795
20
-0.2071268
10
2.3758716
20
-0.1775968
8
gear_texts
0
LWPOLYLINE
5
1027
100
AcDbEntity
100
AcDbPolyline
90
14
70
0
43
0
10
2.3856897
20
-0.3586654
10
2.3810453
20
-0.3883036
10
2.3760327
20
-0.4178816
10
2.3706526
20
-0.4473951
10
2.3354979
20
-0.4709097
10
2.3060897
20
-0.4649801
10
2.2822138
20
-0.4307047
10
2.2873931
20
-0.4022923
10
2.2922187
20
-0.3738176
10
2.3263565
20
-0.3497453
10
2.4153563
20
-0.3631255
10
2.440263
20
-0.3979608
10
2.4646722
20
-0.433471
10
2.4590915
20
-0.4640855
8
gear_texts
0
LWPOLYLINE
5
1028
100
AcDbEntity
100
AcDbPolyline
90
11
70
0
43
0
10
2.3144972
20
-0.6806312
10
2.3058547
20
-0.7093591
10
2.2968556
20
-0.7379774
10
2.2875013
20
-0.7664815
10
2.3061182
20
-0.8047515
10
2.3344431
20
-0.8146359
10
2.3728382
20
-0.7950757
10
2.3825414
20
-0.7655081
10
2.3918762
20
-0.7358223
10
2.4008412
20
-0.7060226
10
2.2281533
20
-0.6552398
8
gear_texts
0
LWPOLYLINE
5
1029
100
AcDbEntity
100
AcDbPolyline
90
5
70
0
43
0
10
2.2397143
20
-0.9744157
10
2.2516579
20
-0.9464897
10
2.2632534
20
-0.9184173
10
2.2744988
20
-0.890203
10
2.2853926
20
-0.861851
8
gear_texts
0
LWPOLYLINE
5
1030
100
AcDbEntity
100
AcDbPolyline
90
5
70
0
43
0
10
2.1846958
20
-0.9504792
10
2.196346
20
-0.9232392
10
2.2076566
20
-0.8958564
10
2.2186258
20
-0.8683351
10
2.2292519
20
-0.8406796
8
gear_texts
0
LWPOLYLINE
5
1031
100
AcDbEntity
100
AcDbPolyline
90
9
70
0
43
0
10
2.1077668
20
-1.1106868
10
2.1214152
20
-1.084391
10
2.1347355
20
-1.0579276
10
2.1477256
20
-1.0313005
10
2.1603837
20
-1.004514
10
2.183784
20
-1.0486151
10
2.206416
20
-1.0934509
10
2.228265
20
-1.1390088
10
2.0679902
20
-1.0570821
8
gear_texts
0
LWPOLYLINE
5
1032
100
AcDbEntity
100
AcDbPolyline
90
11
70
0
43
0
10
2.0284513
20
-1.3059639
10
2.0120549
20
-1.3310866
10
1.9953474
20
-1.3560034
10
1.9783313
20
-1.3807105
10
1.9853949
20
-1.4226782
10
2.0097805
20
-1.4401522
10
2.0521343
20
-1.4322189
10
2.0697852
20
-1.40659
10
2.087116
20
-1.3807437
10
2.104124
20
-1.3546838
10
1.9527785
20
-1.257244
8
gear_texts
0
LWPOLYLINE
5
1033
100
AcDbEntity
100
AcDbPolyline
90
7
70
0
43
0
10
1.8536278
20
-1.3993106
10
1.9015149
20
-1.4354607
10
1.9309519
20
-1.4957377
10
1.9591765
20
-1.556963
10
1.8931588
20
-1.5432938
10
1.8277913
20
-1.5282294
10
1.7817609
20
-1.489743
8
gear_texts
0
LWPOLYLINE
5
1034
100
AcDbEntity
100
AcDbPolyline
90
5
70
0
43
0
10
1.9015149
20
-1.4354607
10
1.883518
20
-1.4589949
10
1.8652299
20
-1.4823035
10
1.8466534
20
-1.5053828
10
1.8277913
20
-1.5282294
8
gear_texts
0
LWPOLYLINE
5
1035
100
AcDbEntity
100
AcDbPolyline
90
5
70
0
43
0
10
1.7518221
20
-1.7020357
10
1.7728513
20
-1.6801204
10
1.7936064
20
-1.6579452
10
1.8140841
20
-1.6355137
10
1.8342813
20
-1.6128293
8
gear_texts
0
LWPOLYLINE
5
1036
100
AcDbEntity
100
AcDbPolyline
90
5
70
0
43
0
10
1.7087886
20
-1.6602252
10
1.7293012
20
-1.6388482
10
1.7495464
20
-1.6172178
10
1.7695211
20
-1.5953373
10
1.7892222
20
-1.5732101
8
gear_texts
0
LWPOLYLINE
5
1037
100
AcDbEntity
100
AcDbPolyline
90
15
70
0
43
0
10
1.5404805
20
-1.7380811
10
1.5619743
20
-1.718791
10
1.5832266
20
-1.6992351
10
1.604234
20
-1.6794164
10
1.6249934
20
-1.6593381
10
1.6669738
20
-1.7022058
10
1.6664002
20
-1.7444961
10
1.6445787
20
-1.7650827
10
1.6225029
20
-1.7853965
10
1.6200748
20
-1.8278851
10
1.6399734
20
-1.8503361
10
1.6830315
20
-1.8520019
10
1.7059309
20
-1.8309304
10
1.7285664
20
-1.8095757
10
1.7299445
20
-1.7665074
8
gear_texts
0
LWPOLYLINE
5
1038
100
AcDbEntity
100
AcDbPolyline
90
7
70
0
43
0
10
1.6127863
20
-1.9134854
10
1.5888676
20
-1.9333924
10
1.5647032
20
-1.9530003
10
1.5402968
20
-1.9723063
10
1.5156523
20
-1.9913072
10
1.4849015
20
-1.9013742
10
1.4521571
20
-1.8125248
8
gear_texts
0
LINE
5
1001
100
AcDbEntity
100
AcDbLine
10
0.1
20
0
30
0
11
-0.1
21
0
31
0
8
gear_guides
0
LINE
5
1002
100
AcDbEntity
100
AcDbLine
10
0
20
0.1
30
0
11
0
21
-0.1
31
0
8
gear_guides
0
CIRCLE
5
1003
100
AcDbEntity
100
AcDbCircle
10
2.9840137
20
0.3092929
30
0
40
0.098125
8
gear_guides
0
CIRCLE
5
1039
100
AcDbEntity
100
AcDbCircle
10
0
20
0
30
0
40
3
8
gear_guides
0
CIRCLE
5
1040
100
AcDbEntity
100
AcDbCircle
10
0
20
0
30
0
40
3.25
8
gear_guides
0
CIRCLE
5
1041
100
AcDbEntity
100
AcDbCircle
10
0
20
0
30
0
40
2.6730196
8
gear_guides
0
ENDSEC
0
SECTION
2
OBJECTS
0
DICTIONARY
5
21D
330
0
100
AcDbDictionary
281
1
3
ACAD_CIP_PREVIOUS_PRODUCT_INFO
350
291
3
ACAD_COLOR
350
273
3
ACAD_DETAILVIEWSTYLE
350
27B
3
ACAD_GROUP
350
21E
3
ACAD_LAYOUT
350
272
3
ACAD_MATERIAL
350
221
3
ACAD_MLEADERSTYLE
350
276
3
ACAD_MLINESTYLE
350
26F
3
ACAD_PLOTSETTINGS
350
271
3
ACAD_PLOTSTYLENAME
350
21F
3
ACAD_SCALELIST
350
253
3
ACAD_SECTIONVIEWSTYLE
350
278
3
ACAD_TABLESTYLE
350
274
3
ACAD_VISUALSTYLE
350
23A
3
ACDB_RECOMPOSE_DATA
350
1057
3
AcDbVariableDictionary
350
29D
0
DICTIONARY
5
297
330
213
100
AcDbDictionary
280
1
281
1
3
ACAD_LAYERSTATES
360
298
0
DICTIONARY
5
292
330
265
100
AcDbDictionary
280
1
281
1
3
ADSK_XREC_LAYER_RECONCILED
360
293
0
XRECORD
5
291
102
{ACAD_REACTORS
330
21D
102
}
330
21D
100
AcDbXrecord
280
1
300
ACDMAC
300
2013
300
ACDMAC_F_S
0
DICTIONARY
5
273
102
{ACAD_REACTORS
330
21D
102
}
330
21D
100
AcDbDictionary
281
1
0
DICTIONARY
5
27B
102
{ACAD_REACTORS
330
21D
102
}
330
21D
100
AcDbDictionary
281
1
3
Imperial24
350
27C
0
DICTIONARY
5
21E
102
{ACAD_REACTORS
330
21D
102
}
330
21D
100
AcDbDictionary
281
1
0
DICTIONARY
5
272
102
{ACAD_REACTORS
330
21D
102
}
330
21D
100
AcDbDictionary
281
1
3
Layout1
350
280
3
Model
350
284
0
DICTIONARY
5
221
102
{ACAD_REACTORS
330
21D
102
}
330
21D
100
AcDbDictionary
281
1
3
ByBlock
350
22A
3
ByLayer
350
222
3
Global
350
232
0
DICTIONARY
5
276
102
{ACAD_REACTORS
330
21D
102
}
330
21D
100
AcDbDictionary
281
1
3
Standard
350
277
0
DICTIONARY
5
26F
102
{ACAD_REACTORS
330
21D
102
}
330
21D
100
AcDbDictionary
281
1
3
Standard
350
270
0
DICTIONARY
5
271
102
{ACAD_REACTORS
330
21D
102
}
330
21D
100
AcDbDictionary
281
1
0
ACDBDICTIONARYWDFLT
5
21F
102
{ACAD_REACTORS
330
21D
102
}
330
21D
100
AcDbDictionary
281
1
3
Normal
350
220
100
AcDbDictionaryWithDefault
340
220
0
DICTIONARY
5
253
102
{ACAD_REACTORS
330
21D
102
}
330
21D
100
AcDbDictionary
281
1
3
A0
350
254
3
A1
350
255
3
A2
350
256
3
A3
350
257
3
A4
350
258
3
A5
350
259
3
A6
350
25A
3
A7
350
25B
3
A8
350
25C
3
A9
350
25D
3
B0
350
25E
3
B1
350
25F
3
B2
350
260
3
B3
350
261
3
B4
350
262
3
B5
350
263
3
B6
350
264
0
DICTIONARY
5
278
102
{ACAD_REACTORS
330
21D
102
}
330
21D
100
AcDbDictionary
281
1
3
Imperial24
350
27A
0
DICTIONARY
5
274
102
{ACAD_REACTORS
330
21D
102
}
330
21D
100
AcDbDictionary
281
1
3
Standard
350
275
0
DICTIONARY
5
23A
102
{ACAD_REACTORS
330
21D
102
}
330
21D
100
AcDbDictionary
281
1
3
2dWireframe
350
240
3
Basic
350
23F
3
Brighten
350
246
3
ColorChange
350
24A
3
Conceptual
350
243
3
Dim
350
245
3
EdgeColorOff
350
252
3
Facepattern
350
249
3
Flat
350
23B
3
FlatWithEdges
350
23C
3
Gouraud
350
23D
3
GouraudWithEdges
350
23E
3
Hidden
350
242
3
JitterOff
350
250
3
Linepattern
350
248
3
OverhangOff
350
251
3
Realistic
350
244
3
Shaded
350
24F
3
Shaded with edges
350
24E
3
Shades of Gray
350
24B
3
Sketchy
350
24C
3
Thicken
350
247
3
Wireframe
350
241
3
X-Ray
350
24D
0
XRECORD
5
1057
102
{ACAD_REACTORS
330
21D
102
}
330
21D
100
AcDbXrecord
280
1
90
1
330
275
0
DICTIONARY
5
29D
102
{ACAD_REACTORS
330
21D
102
}
330
21D
100
AcDbDictionary
281
1
3
CANNOSCALE
350
2A3
3
CMLEADERSTYLE
350
29F
3
CTABLESTYLE
350
29E
3
CVIEWDETAILSTYLE
350
2A0
3
CVIEWSECTIONSTYLE
350
2A1
3
LAYEREVAL
350
2A5
3
LAYERNOTIFY
350
2A6
3
LIGHTINGUNITS
350
2A4
3
MSLTSCALE
350
2A2
0
DICTIONARY
5
298
102
{ACAD_REACTORS
330
297
102
}
330
297
100
AcDbDictionary
281
1
0
XRECORD
5
293
102
{ACAD_REACTORS
330
292
102
}
330
292
100
AcDbXrecord
280
1
290
1
0
ACDBDETAILVIEWSTYLE
5
27C
102
{ACAD_REACTORS
330
27B
102
}
330
27B
100
AcDbModelDocViewStyle
70
0
3
Imperial24
290
0
100
AcDbDetailViewStyle
70
0
71
0
90
3
71
1
340
266
62
256
40
0.24
340
0
62
256
40
0.24
300

40
0.36
280
3
71
2
340
26D
90
25
62
256
71
3
340
266
62
256
40
0.24
90
1
40
0.75
90
1
300
%<AcVar ViewType  "%tc1">% %<AcVar ViewDetailId>%PSCALE %<AcVar ViewScale  "%sn">%
71
4
340
26D
90
25
62
256
340
26D
90
25
62
256
280
0
0
LAYOUT
5
280
102
{ACAD_REACTORS
330
272
102
}
330
272
100
AcDbPlotSettings
1

2
HP_LaserJet_P1505
4

6

40
0.0
41
0.0
42
0.0
43
0.0
44
0.0
45
0.0
46
0.0
47
0.0
48
0.0
49
0.0
140
0.0
141
0.0
142
1.0
143
1.0
70
688
72
0
73
0
74
5
7

75
16
147
1.0
76
0
77
2
78
300
148
0.0
149
0.0
100
AcDbLayout
1
Layout1
70
1
71
1
10
0.0
20
0.0
11
12.0
21
9.0
12
0.0
22
0.0
32
0.0
14
0.0
24
0.0
34
0.0
15
0.0
25
0.0
35
0.0
146
0.0
13
0.0
23
0.0
33
0.0
16
1.0
26
0.0
36
0.0
17
0.0
27
1.0
37
0.0
76
0
330
27D
0
LAYOUT
5
284
102
{ACAD_REACTORS
330
272
102
}
330
272
100
AcDbPlotSettings
1

2
HP_LaserJet_P1505
4

6

40
0.0
41
0.0
42
0.0
43
0.0
44
0.0
45
0.0
46
0.0
47
0.0
48
0.0
49
0.0
140
0.0
141
0.0
142
1.0
143
1.0
70
1712
72
0
73
0
74
0
7

75
0
147
1.0
76
0
77
2
78
300
148
0.0
149
0.0
100
AcDbLayout
1
Model
70
1
71
0
10
0.0
20
0.0
11
12.0
21
9.0
12
0.0
22
0.0
32
0.0
14
0.0
24
0.0
34
0.0
15
0.0
25
0.0
35
0.0
146
0.0
13
0.0
23
0.0
33
0.0
16
1.0
26
0.0
36
0.0
17
0.0
27
1.0
37
0.0
76
0
330
281
331
285
0
MATERIAL
5
22A
102
{ACAD_XDICTIONARY
360
22B
102
}
102
{ACAD_REACTORS
330
221
102
}
330
221
100
AcDbMaterial
1
ByBlock
72
0
43
0.0208333333333333
43
0.0
43
0.0
43
0.0
43
0.0
43
0.0208333333333333
43
0.0
43
0.0
43
0.0
43
0.0
43
1.0
43
0.0
43
0.0
43
0.0
43
0.0
43
1.0
77
0
47
0.0208333333333333
47
0.0
47
0.0
47
0.0
47
0.0
47
0.0208333333333333
47
0.0
47
0.0
47
0.0
47
0.0
47
1.0
47
0.0
47
0.0
47
0.0
47
0.0
47
1.0
171
0
49
0.0208333333333333
49
0.0
49
0.0
49
0.0
49
0.0
49
0.0208333333333333
49
0.0
49
0.0
49
0.0
49
0.0
49
1.0
49
0.0
49
0.0
49
0.0
49
0.0
49
1.0
175
0
142
0.0208333333333333
142
0.0
142
0.0
142
0.0
142
0.0
142
0.0208333333333333
142
0.0
142
0.0
142
0.0
142
0.0
142
1.0
142
0.0
142
0.0
142
0.0
142
0.0
142
1.0
179
0
144
0.0208333333333333
144
0.0
144
0.0
144
0.0
144
0.0
144
0.0208333333333333
144
0.0
144
0.0
144
0.0
144
0.0
144
1.0
144
0.0
144
0.0
144
0.0
144
0.0
144
1.0
147
0.0208333333333333
147
0.0
147
0.0
147
0.0
147
0.0
147
0.0208333333333333
147
0.0
147
0.0
147
0.0
147
0.0
147
1.0
147
0.0
147
0.0
147
0.0
147
0.0
147
1.0
0
MATERIAL
5
222
102
{ACAD_XDICTIONARY
360
223
102
}
102
{ACAD_REACTORS
330
221
102
}
330
221
100
AcDbMaterial
1
ByLayer
72
0
43
0.0208333333333333
43
0.0
43
0.0
43
0.0
43
0.0
43
0.0208333333333333
43
0.0
43
0.0
43
0.0
43
0.0
43
1.0
43
0.0
43
0.0
43
0.0
43
0.0
43
1.0
77
0
47
0.0208333333333333
47
0.0
47
0.0
47
0.0
47
0.0
47
0.0208333333333333
47
0.0
47
0.0
47
0.0
47
0.0
47
1.0
47
0.0
47
0.0
47
0.0
47
0.0
47
1.0
171
0
49
0.0208333333333333
49
0.0
49
0.0
49
0.0
49
0.0
49
0.0208333333333333
49
0.0
49
0.0
49
0.0
49
0.0
49
1.0
49
0.0
49
0.0
49
0.0
49
0.0
49
1.0
175
0
142
0.0208333333333333
142
0.0
142
0.0
142
0.0
142
0.0
142
0.0208333333333333
142
0.0
142
0.0
142
0.0
142
0.0
142
1.0
142
0.0
142
0.0
142
0.0
142
0.0
142
1.0
179
0
144
0.0208333333333333
144
0.0
144
0.0
144
0.0
144
0.0
144
0.0208333333333333
144
0.0
144
0.0
144
0.0
144
0.0
144
1.0
144
0.0
144
0.0
144
0.0
144
0.0
144
1.0
147
0.0208333333333333
147
0.0
147
0.0
147
0.0
147
0.0
147
0.0208333333333333
147
0.0
147
0.0
147
0.0
147
0.0
147
1.0
147
0.0
147
0.0
147
0.0
147
0.0
147
1.0
0
MATERIAL
5
232
102
{ACAD_XDICTIONARY
360
233
102
}
102
{ACAD_REACTORS
330
221
102
}
330
221
100
AcDbMaterial
1
Global
72
0
43
0.0208333333333333
43
0.0
43
0.0
43
0.0
43
0.0
43
0.0208333333333333
43
0.0
43
0.0
43
0.0
43
0.0
43
1.0
43
0.0
43
0.0
43
0.0
43
0.0
43
1.0
77
0
47
0.0208333333333333
47
0.0
47
0.0
47
0.0
47
0.0
47
0.0208333333333333
47
0.0
47
0.0
47
0.0
47
0.0
47
1.0
47
0.0
47
0.0
47
0.0
47
0.0
47
1.0
171
0
49
0.0208333333333333
49
0.0
49
0.0
49
0.0
49
0.0
49
0.0208333333333333
49
0.0
49
0.0
49
0.0
49
0.0
49
1.0
49
0.0
49
0.0
49
0.0
49
0.0
49
1.0
175
0
142
0.0208333333333333
142
0.0
142
0.0
142
0.0
142
0.0
142
0.0208333333333333
142
0.0
142
0.0
142
0.0
142
0.0
142
1.0
142
0.0
142
0.0
142
0.0
142
0.0
142
1.0
179
0
144
0.0208333333333333
144
0.0
144
0.0
144
0.0
144
0.0
144
0.0208333333333333
144
0.0
144
0.0
144
0.0
144
0.0
144
1.0
144
0.0
144
0.0
144
0.0
144
0.0
144
1.0
147
0.0208333333333333
147
0.0
147
0.0
147
0.0
147
0.0
147
0.0208333333333333
147
0.0
147
0.0
147
0.0
147
0.0
147
1.0
147
0.0
147
0.0
147
0.0
147
0.0
147
1.0
0
MLEADERSTYLE
5
277
102
{ACAD_REACTORS
330
276
102
}
330
276
100
AcDbMLeaderStyle
179
2
170
2
171
1
172
0
90
2
40
0.0
41
0.0
173
1
91
-1056964608
340
26B
92
-2
290
1
42
0.09
291
1
43
0.36
3
Standard
44
0.18
300

342
266
174
1
178
6
175
1
176
0
93
-1056964608
45
0.18
292
0
297
0
46
0.18
94
-1056964608
47
1.0
49
1.0
140
1.0
293
1
141
0.0
294
1
177
0
142
1.0
295
0
296
0
143
0.125
271
0
272
9
273
9
298
0
0
MLINESTYLE
5
270
102
{ACAD_REACTORS
330
26F
102
}
330
26F
100
AcDbMlineStyle
2
STANDARD
70
0
3

62
256
51
90.0
52
90.0
71
2
49
0.5
62
256
6
BYLAYER
49
-0.5
62
256
6
BYLAYER
0
ACDBPLACEHOLDER
5
220
102
{ACAD_REACTORS
330
21F
102
}
330
21F
0
SCALE
5
254
102
{ACAD_REACTORS
330
253
102
}
330
253
100
AcDbScale
70
0
300
1:1
140
1.0
141
1.0
290
1
0
SCALE
5
255
102
{ACAD_REACTORS
330
253
102
}
330
253
100
AcDbScale
70
0
300
1/128" = 1'-0"
140
0.0078125
141
12.0
290
0
0
SCALE
5
256
102
{ACAD_REACTORS
330
253
102
}
330
253
100
AcDbScale
70
0
300
1/64" = 1'-0"
140
0.015625
141
12.0
290
0
0
SCALE
5
257
102
{ACAD_REACTORS
330
253
102
}
330
253
100
AcDbScale
70
0
300
1/32" = 1'-0"
140
0.03125
141
12.0
290
0
0
SCALE
5
258
102
{ACAD_REACTORS
330
253
102
}
330
253
100
AcDbScale
70
0
300
1/16" = 1'-0"
140
0.0625
141
12.0
290
0
0
SCALE
5
259
102
{ACAD_REACTORS
330
253
102
}
330
253
100
AcDbScale
70
0
300
3/32" = 1'-0"
140
0.09375
141
12.0
290
0
0
SCALE
5
25A
102
{ACAD_REACTORS
330
253
102
}
330
253
100
AcDbScale
70
0
300
1/8" = 1'-0"
140
0.125
141
12.0
290
0
0
SCALE
5
25B
102
{ACAD_REACTORS
330
253
102
}
330
253
100
AcDbScale
70
0
300
3/16" = 1'-0"
140
0.1875
141
12.0
290
0
0
SCALE
5
25C
102
{ACAD_REACTORS
330
253
102
}
330
253
100
AcDbScale
70
0
300
1/4" = 1'-0"
140
0.25
141
12.0
290
0
0
SCALE
5
25D
102
{ACAD_REACTORS
330
253
102
}
330
253
100
AcDbScale
70
0
300
3/8" = 1'-0"
140
0.375
141
12.0
290
0
0
SCALE
5
25E
102
{ACAD_REACTORS
330
253
102
}
330
253
100
AcDbScale
70
0
300
1/2" = 1'-0"
140
0.5
141
12.0
290
0
0
SCALE
5
25F
102
{ACAD_REACTORS
330
253
102
}
330
253
100
AcDbScale
70
0
300
3/4" = 1'-0"
140
0.75
141
12.0
290
0
0
SCALE
5
260
102
{ACAD_REACTORS
330
253
102
}
330
253
100
AcDbScale
70
0
300
1" = 1'-0"
140
1.0
141
12.0
290
0
0
SCALE
5
261
102
{ACAD_REACTORS
330
253
102
}
330
253
100
AcDbScale
70
0
300
1-1/2" = 1'-0"
140
1.5
141
12.0
290
0
0
SCALE
5
262
102
{ACAD_REACTORS
330
253
102
}
330
253
100
AcDbScale
70
0
300
3" = 1'-0"
140
3.0
141
12.0
290
0
0
SCALE
5
263
102
{ACAD_REACTORS
330
253
102
}
330
253
100
AcDbScale
70
0
300
6" = 1'-0"
140
6.0
141
12.0
290
0
0
SCALE
5
264
102
{ACAD_REACTORS
330
253
102
}
330
253
100
AcDbScale
70
0
300
1'-0" = 1'-0"
140
12.0
141
12.0
290
0
0
ACDBSECTIONVIEWSTYLE
5
27A
102
{ACAD_REACTORS
330
278
102
}
330
278
100
AcDbModelDocViewStyle
70
0
3
Imperial24
290
0
100
AcDbSectionViewStyle
70
0
71
0
90
78
71
1
340
266
62
256
40
0.24
340
0
340
0
62
256
40
0.24
300
I, O, Q, S, X, Z
40
0.48
90
3
40
0.18
90
1
71
2
340
279
90
25
62
256
340
26D
90
50
62
256
40
0.24
40
0.0
40
0.24
71
3
340
266
62
256
40
0.24
90
1
40
0.75
90
1
300
%<AcVar ViewType  "%tc1">% %<AcVar ViewSectionStartId>%-%<AcVar ViewSectionEndId>%PSCALE %<AcVar ViewScale  "%sn">%
71
4
62
256
62
257
300
ANSI31
40
1.0
90
0
290
0
290
0
90
6
40
0.0
40
1.570796326794896
40
0.2617993877991494
40
1.308996938995747
40
-0.2617993877991494
40
1.832595714594044
0
TABLESTYLE
5
275
102
{ACAD_XDICTIONARY
360
2A7
102
}
102
{ACAD_REACTORS
330
274
102
}
330
274
100
AcDbTableStyle
280
0
3
Standard
70
0
71
0
40
0.06
41
0.06
280
0
281
0
7
STANDARD
140
0.18
170
2
62
0
63
7
283
0
90
512
91
0
1

274
-2
284
1
64
0
275
-2
285
1
65
0
276
-2
286
1
66
0
277
-2
287
1
67
0
278
-2
288
1
68
0
279
-2
289
1
69
0
7
STANDARD
140
0.25
170
5
62
0
63
7
283
0
90
512
91
0
1

274
-2
284
1
64
0
275
-2
285
1
65
0
276
-2
286
1
66
0
277
-2
287
1
67
0
278
-2
288
1
68
0
279
-2
289
1
69
0
7
STANDARD
140
0.18
170
5
62
0
63
7
283
0
90
512
91
0
1

274
-2
284
1
64
0
275
-2
285
1
65
0
276
-2
286
1
66
0
277
-2
287
1
67
0
278
-2
288
1
68
0
279
-2
289
1
69
0
0
VISUALSTYLE
5
240
102
{ACAD_REACTORS
330
23A
102
}
330
23A
100
AcDbVisualStyle
2
2dWireframe
70
4
177
3
291
0
70
58
90
0
176
1
90
2
176
1
90
0
176
1
90
0
176
1
40
0.6
176
1
40
30.0
176
1
62
7
420
16777215
176
1
90
1
176
1
90
4
176
1
62
7
176
1
62
257
176
1
90
1
176
1
90
1
176
1
40
1.0
176
1
90
0
176
1
62
257
176
1
40
1.0
176
1
90
1
176
1
90
6
176
1
90
2
176
1
62
7
176
1
90
5
176
1
90
0
176
1
90
0
176
1
290
0
176
1
90
1
176
1
40
0.0
176
1
90
0
176
1
290
1
176
1
290
1
176
1
290
0
176
1
290
0
176
1
290
0
176
1
290
0
176
1
290
0
176
1
290
0
176
1
290
0
176
1
90
50
176
1
40
0.0
176
1
40
1.0
176
1
90
0
176
1
62
18
176
1
90
50
176
1
90
3
176
1
62
5
420
255
176
1
290
0
176
1
90
50
176
1
90
50
176
1
90
50
176
1
290
0
176
1
90
50
176
1
62
256
176
0
40
1.0
176
0
90
2
176
1
1
strokes_ogs.tif
176
1
290
0
176
1
40
1.0
176
1
40
1.0
176
1
1001
ACAD
1000
AcDbSavedByObjectVersion
1070
0
0
VISUALSTYLE
5
23F
102
{ACAD_REACTORS
330
23A
102
}
330
23A
100
AcDbVisualStyle
2
Basic
70
7
177
3
291
1
70
58
90
1
176
1
90
0
176
1
90
1
176
1
90
0
176
1
40
0.6
176
1
40
30.0
176
1
62
7
420
16777215
176
1
90
0
176
1
90
4
176
1
62
7
176
1
62
257
176
1
90
1
176
1
90
1
176
1
40
1.0
176
1
90
8
176
1
62
7
176
1
40
1.0
176
1
90
1
176
1
90
6
176
1
90
2
176
1
62
7
176
1
90
5
176
1
90
0
176
1
90
0
176
1
290
0
176
1
90
1
176
1
40
0.0
176
1
90
0
176
1
290
0
176
1
290
1
176
1
290
1
176
1
290
0
176
1
290
0
176
1
290
0
176
1
290
0
176
1
290
0
176
1
290
0
176
1
90
50
176
1
40
0.0
176
1
40
1.0
176
1
90
0
176
1
62
18
176
1
90
50
176
1
90
3
176
1
62
5
420
255
176
1
290
0
176
1
90
50
176
1
90
50
176
1
90
50
176
1
290
0
176
1
90
50
176
1
62
256
176
0
40
1.0
176
0
90
2
176
1
1
strokes_ogs.tif
176
1
290
0
176
1
40
1.0
176
1
40
1.0
176
1
1001
ACAD
1000
AcDbSavedByObjectVersion
1070
0
0
VISUALSTYLE
5
246
102
{ACAD_REACTORS
330
23A
102
}
330
23A
100
AcDbVisualStyle
2
Brighten
70
12
177
3
291
1
70
58
90
2
176
1
90
2
176
1
90
0
176
1
90
0
176
1
40
0.6
176
1
40
30.0
176
1
62
7
420
16777215
176
1
90
1
176
1
90
4
176
1
62
7
176
1
62
257
176
1
90
1
176
1
90
1
176
1
40
1.0
176
1
90
8
176
1
62
7
176
1
40
1.0
176
1
90
1
176
1
90
6
176
1
90
2
176
1
62
7
176
1
90
5
176
1
90
0
176
1
90
0
176
1
290
0
176
1
90
1
176
1
40
50.0
176
1
90
0
176
1
290
0
176
1
290
1
176
1
290
1
176
1
290
0
176
1
290
0
176
1
290
0
176
1
290
0
176
1
290
0
176
1
290
0
176
1
90
50
176
1
40
0.0
176
1
40
1.0
176
1
90
0
176
1
62
18
176
1
90
50
176
1
90
3
176
1
62
5
420
255
176
1
290
0
176
1
90
50
176
1
90
50
176
1
90
50
176
1
290
0
176
1
90
50
176
1
62
256
176
0
40
1.0
176
0
90
2
176
1
1
strokes_ogs.tif
176
1
290
0
176
1
40
1.0
176
1
40
1.0
176
1
1001
ACAD
1000
AcDbSavedByObjectVersion
1070
0
0
VISUALSTYLE
5
24A
102
{ACAD_REACTORS
330
23A
102
}
330
23A
100
AcDbVisualStyle
2
ColorChange
70
16
177
3
291
1
70
58
90
2
176
1
90
2
176
1
90
3
176
1
90
0
176
1
40
0.6
176
1
40
30.0
176
1
62
8
420
8421504
176
1
90
1
176
1
90
4
176
1
62
7
176
1
62
257
176
1
90
1
176
1
90
1
176
1
40
1.0
176
1
90
8
176
1
62
8
420
8421504
176
1
40
1.0
176
1
90
1
176
1
90
6
176
1
90
2
176
1
62
7
176
1
90
5
176
1
90
0
176
1
90
0
176
1
290
0
176
1
90
1
176
1
40
0.0
176
1
90
0
176
1
290
0
176
1
290
1
176
1
290
1
176
1
290
0
176
1
290
0
176
1
290
0
176
1
290
0
176
1
290
0
176
1
290
0
176
1
90
50
176
1
40
0.0
176
1
40
1.0
176
1
90
0
176
1
62
18
176
1
90
50
176
1
90
3
176
1
62
5
420
255
176
1
290
0
176
1
90
50
176
1
90
50
176
1
90
50
176
1
290
0
176
1
90
50
176
1
62
256
176
0
40
1.0
176
0
90
2
176
1
1
strokes_ogs.tif
176
1
290
0
176
1
40
1.0
176
1
40
1.0
176
1
1001
ACAD
1000
AcDbSavedByObjectVersion
1070
0
0
VISUALSTYLE
5
243
102
{ACAD_REACTORS
330
23A
102
}
330
23A
100
AcDbVisualStyle
2
Conceptual
70
9
177
3
291
0
70
58
90
3
176
1
90
2
176
1
90
0
176
1
90
0
176
1
40
0.6
176
1
40
30.0
176
1
62
7
420
16777215
176
1
90
2
176
1
90
2
176
1
62
7
176
1
62
257
176
1
90
1
176
1
90
1
176
1
40
179.0
176
1
90
8
176
1
62
7
176
1
40
1.0
176
1
90
1
176
1
90
6
176
1
90
2
176
1
62
7
176
1
90
3
176
1
90
0
176
1
90
0
176
1
290
0
176
1
90
1
176
1
40
0.0
176
1
90
0
176
1
290
0
176
1
290
1
176
1
290
1
176
1
290
0
176
1
290
0
176
1
290
0
176
1
290
0
176
1
290
0
176
1
290
0
176
1
90
50
176
1
40
0.0
176
1
40
1.0
176
1
90
0
176
1
62
18
176
1
90
50
176
1
90
3
176
1
62
5
420
255
176
1
290
0
176
1
90
50
176
1
90
50
176
1
90
50
176
1
290
0
176
1
90
50
176
1
62
256
176
0
40
1.0
176
0
90
2
176
1
1
strokes_ogs.tif
176
1
290
0
176
1
40
1.0
176
1
40
1.0
176
1
1001
ACAD
1000
AcDbSavedByObjectVersion
1070
0
0
VISUALSTYLE
5
245
102
{ACAD_REACTORS
330
23A
102
}
330
23A
100
AcDbVisualStyle
2
Dim
70
11
177
3
291
1
70
58
90
2
176
1
90
2
176
1
90
0
176
1
90
0
176
1
40
0.6
176
1
40
30.0
176
1
62
7
420
16777215
176
1
90
1
176
1
90
4
176
1
62
7
176
1
62
257
176
1
90
1
176
1
90
1
176
1
40
1.0
176
1
90
8
176
1
62
7
176
1
40
1.0
176
1
90
1
176
1
90
6
176
1
90
2
176
1
62
7
176
1
90
5
176
1
90
0
176
1
90
0
176
1
290
0
176
1
90
1
176
1
40
-50.0
176
1
90
0
176
1
290
0
176
1
290
1
176
1
290
1
176
1
290
0
176
1
290
0
176
1
290
0
176
1
290
0
176
1
290
0
176
1
290
0
176
1
90
50
176
1
40
0.0
176
1
40
1.0
176
1
90
0
176
1
62
18
176
1
90
50
176
1
90
3
176
1
62
5
420
255
176
1
290
0
176
1
90
50
176
1
90
50
176
1
90
50
176
1
290
0
176
1
90
50
176
1
62
256
176
0
40
1.0
176
0
90
2
176
1
1
strokes_ogs.tif
176
1
290
0
176
1
40
1.0
176
1
40
1.0
176
1
1001
ACAD
1000
AcDbSavedByObjectVersion
1070
0
0
VISUALSTYLE
5
252
102
{ACAD_REACTORS
330
23A
102
}
330
23A
100
AcDbVisualStyle
2
EdgeColorOff
70
22
177
3
291
1
70
58
90
2
176
0
90
2
176
0
90
0
176
0
90
0
176
0
40
0.6
176
0
40
30.0
176
0
62
7
420
16777215
176
0
90
1
176
0
90
4
176
0
62
7
176
0
62
257
176
0
90
1
176
0
90
1
176
0
40
1.0
176
0
90
8
176
2
62
7
176
0
40
1.0
176
0
90
1
176
0
90
6
176
0
90
2
176
0
62
7
176
0
90
5
176
0
90
0
176
0
90
0
176
0
290
0
176
0
90
1
176
0
40
0.0
176
0
90
0
176
0
290
0
176
1
290
1
176
1
290
1
176
1
290
0
176
1
290
0
176
1
290
0
176
1
290
0
176
1
290
0
176
1
290
0
176
1
90
50
176
0
40
0.0
176
0
40
1.0
176
0
90
0
176
0
62
18
176
0
90
50
176
0
90
3
176
0
62
5
420
255
176
0
290
0
176
1
90
50
176
0
90
50
176
0
90
50
176
0
290
0
176
1
90
50
176
0
62
256
176
0
40
1.0
176
0
90
2
176
0
1
strokes_ogs.tif
176
0
290
0
176
1
40
1.0
176
0
40
1.0
176
0
1001
ACAD
1000
AcDbSavedByObjectVersion
1070
0
0
VISUALSTYLE
5
249
102
{ACAD_REACTORS
330
23A
102
}
330
23A
100
AcDbVisualStyle
2
Facepattern
70
15
177
3
291
1
70
58
90
2
176
1
90
2
176
1
90
0
176
1
90
0
176
1
40
0.6
176
1
40
30.0
176
1
62
7
420
16777215
176
1
90
1
176
1
90
4
176
1
62
7
176
1
62
257
176
1
90
1
176
1
90
1
176
1
40
1.0
176
1
90
8
176
1
62
7
176
1
40
1.0
176
1
90
1
176
1
90
6
176
1
90
2
176
1
62
7
176
1
90
5
176
1
90
0
176
1
90
0
176
1
290
0
176
1
90
1
176
1
40
0.0
176
1
90
0
176
1
290
0
176
1
290
1
176
1
290
1
176
1
290
0
176
1
290
0
176
1
290
0
176
1
290
0
176
1
290
0
176
1
290
0
176
1
90
50
176
1
40
0.0
176
1
40
1.0
176
1
90
0
176
1
62
18
176
1
90
50
176
1
90
3
176
1
62
5
420
255
176
1
290
0
176
1
90
50
176
1
90
50
176
1
90
50
176
1
290
0
176
1
90
50
176
1
62
256
176
0
40
1.0
176
0
90
2
176
1
1
strokes_ogs.tif
176
1
290
0
176
1
40
1.0
176
1
40
1.0
176
1
1001
ACAD
1000
AcDbSavedByObjectVersion
1070
0
0
VISUALSTYLE
5
23B
102
{ACAD_REACTORS
330
23A
102
}
330
23A
100
AcDbVisualStyle
2
Flat
70
0
177
3
291
1
70
58
90
2
176
1
90
1
176
1
90
1
176
1
90
2
176
1
40
0.6
176
1
40
30.0
176
1
62
7
420
16777215
176
1
90
0
176
1
90
0
176
1
62
7
176
1
62
257
176
1
90
1
176
1
90
1
176
1
40
1.0
176
1
90
8
176
1
62
7
176
1
40
1.0
176
1
90
1
176
1
90
6
176
1
90
2
176
1
62
7
176
1
90
5
176
1
90
0
176
1
90
0
176
1
290
0
176
1
90
13
176
1
40
0.0
176
1
90
0
176
1
290
0
176
1
290
1
176
1
290
1
176
1
290
0
176
1
290
0
176
1
290
0
176
1
290
0
176
1
290
0
176
1
290
0
176
1
90
50
176
1
40
0.0
176
1
40
1.0
176
1
90
0
176
1
62
18
176
1
90
50
176
1
90
3
176
1
62
5
420
255
176
1
290
0
176
1
90
50
176
1
90
50
176
1
90
50
176
1
290
0
176
1
90
50
176
1
62
256
176
0
40
1.0
176
0
90
2
176
1
1
strokes_ogs.tif
176
1
290
0
176
1
40
1.0
176
1
40
1.0
176
1
1001
ACAD
1000
AcDbSavedByObjectVersion
1070
0
0
VISUALSTYLE
5
23C
102
{ACAD_REACTORS
330
23A
102
}
330
23A
100
AcDbVisualStyle
2
FlatWithEdges
70
1
177
3
291
1
70
58
90
2
176
1
90
1
176
1
90
1
176
1
90
2
176
1
40
0.6
176
1
40
30.0
176
1
62
7
420
16777215
176
1
90
1
176
1
90
0
176
1
62
7
176
1
62
257
176
1
90
1
176
1
90
1
176
1
40
1.0
176
1
90
0
176
1
62
257
176
1
40
1.0
176
1
90
1
176
1
90
6
176
1
90
2
176
1
62
7
176
1
90
5
176
1
90
0
176
1
90
0
176
1
290
0
176
1
90
13
176
1
40
0.0
176
1
90
0
176
1
290
0
176
1
290
1
176
1
290
1
176
1
290
0
176
1
290
0
176
1
290
0
176
1
290
0
176
1
290
0
176
1
290
0
176
1
90
50
176
1
40
0.0
176
1
40
1.0
176
1
90
0
176
1
62
18
176
1
90
50
176
1
90
3
176
1
62
5
420
255
176
1
290
0
176
1
90
50
176
1
90
50
176
1
90
50
176
1
290
0
176
1
90
50
176
1
62
256
176
0
40
1.0
176
0
90
2
176
1
1
strokes_ogs.tif
176
1
290
0
176
1
40
1.0
176
1
40
1.0
176
1
1001
ACAD
1000
AcDbSavedByObjectVersion
1070
0
0
VISUALSTYLE
5
23D
102
{ACAD_REACTORS
330
23A
102
}
330
23A
100
AcDbVisualStyle
2
Gouraud
70
2
177
3
291
1
70
58
90
2
176
1
90
2
176
1
90
1
176
1
90
2
176
1
40
0.6
176
1
40
30.0
176
1
62
7
420
16777215
176
1
90
0
176
1
90
0
176
1
62
7
176
1
62
257
176
1
90
1
176
1
90
1
176
1
40
1.0
176
1
90
0
176
1
62
7
176
1
40
1.0
176
1
90
1
176
1
90
6
176
1
90
2
176
1
62
7
176
1
90
5
176
1
90
0
176
1
90
0
176
1
290
0
176
1
90
13
176
1
40
0.0
176
1
90
0
176
1
290
0
176
1
290
1
176
1
290
1
176
1
290
0
176
1
290
0
176
1
290
0
176
1
290
0
176
1
290
0
176
1
290
0
176
1
90
50
176
1
40
0.0
176
1
40
1.0
176
1
90
0
176
1
62
18
176
1
90
50
176
1
90
3
176
1
62
5
420
255
176
1
290
0
176
1
90
50
176
1
90
50
176
1
90
50
176
1
290
0
176
1
90
50
176
1
62
256
176
0
40
1.0
176
0
90
2
176
1
1
strokes_ogs.tif
176
1
290
0
176
1
40
1.0
176
1
40
1.0
176
1
1001
ACAD
1000
AcDbSavedByObjectVersion
1070
0
0
VISUALSTYLE
5
23E
102
{ACAD_REACTORS
330
23A
102
}
330
23A
100
AcDbVisualStyle
2
GouraudWithEdges
70
3
177
3
291
1
70
58
90
2
176
1
90
2
176
1
90
1
176
1
90
2
176
1
40
0.6
176
1
40
30.0
176
1
62
7
420
16777215
176
1
90
1
176
1
90
0
176
1
62
7
176
1
62
257
176
1
90
1
176
1
90
1
176
1
40
1.0
176
1
90
0
176
1
62
257
176
1
40
1.0
176
1
90
1
176
1
90
6
176
1
90
2
176
1
62
7
176
1
90
5
176
1
90
0
176
1
90
0
176
1
290
0
176
1
90
13
176
1
40
0.0
176
1
90
0
176
1
290
0
176
1
290
1
176
1
290
1
176
1
290
0
176
1
290
0
176
1
290
0
176
1
290
0
176
1
290
0
176
1
290
0
176
1
90
50
176
1
40
0.0
176
1
40
1.0
176
1
90
0
176
1
62
18
176
1
90
50
176
1
90
3
176
1
62
5
420
255
176
1
290
0
176
1
90
50
176
1
90
50
176
1
90
50
176
1
290
0
176
1
90
50
176
1
62
256
176
0
40
1.0
176
0
90
2
176
1
1
strokes_ogs.tif
176
1
290
0
176
1
40
1.0
176
1
40
1.0
176
1
1001
ACAD
1000
AcDbSavedByObjectVersion
1070
0
0
VISUALSTYLE
5
242
102
{ACAD_REACTORS
330
23A
102
}
330
23A
100
AcDbVisualStyle
2
Hidden
70
6
177
3
291
0
70
58
90
1
176
1
90
2
176
1
90
2
176
1
90
0
176
1
40
0.6
176
1
40
30.0
176
1
62
7
420
16777215
176
1
90
2
176
1
90
2
176
1
62
7
176
1
62
257
176
1
90
2
176
1
90
1
176
1
40
40.0
176
1
90
0
176
1
62
257
176
1
40
1.0
176
1
90
1
176
1
90
6
176
1
90
2
176
1
62
7
176
1
90
3
176
1
90
0
176
1
90
0
176
1
290
0
176
1
90
1
176
1
40
0.0
176
1
90
0
176
1
290
0
176
1
290
1
176
1
290
1
176
1
290
0
176
1
290
0
176
1
290
0
176
1
290
0
176
1
290
0
176
1
290
0
176
1
90
50
176
1
40
0.0
176
1
40
1.0
176
1
90
0
176
1
62
18
176
1
90
50
176
1
90
3
176
1
62
5
420
255
176
1
290
0
176
1
90
50
176
1
90
50
176
1
90
50
176
1
290
0
176
1
90
50
176
1
62
256
176
0
40
1.0
176
0
90
2
176
1
1
strokes_ogs.tif
176
1
290
0
176
1
40
1.0
176
1
40
1.0
176
1
1001
ACAD
1000
AcDbSavedByObjectVersion
1070
0
0
VISUALSTYLE
5
250
102
{ACAD_REACTORS
330
23A
102
}
330
23A
100
AcDbVisualStyle
2
JitterOff
70
20
177
3
291
1
70
58
90
2
176
0
90
2
176
0
90
0
176
0
90
0
176
0
40
0.6
176
0
40
30.0
176
0
62
7
420
16777215
176
0
90
1
176
0
90
4
176
0
62
7
176
0
62
257
176
0
90
1
176
0
90
1
176
0
40
1.0
176
0
90
10
176
2
62
7
176
0
40
1.0
176
0
90
1
176
0
90
6
176
0
90
2
176
0
62
7
176
0
90
5
176
0
90
0
176
0
90
0
176
0
290
0
176
0
90
1
176
0
40
0.0
176
0
90
0
176
0
290
0
176
1
290
1
176
1
290
1
176
1
290
0
176
1
290
0
176
1
290
0
176
1
290
0
176
1
290
0
176
1
290
0
176
1
90
50
176
0
40
0.0
176
0
40
1.0
176
0
90
0
176
0
62
18
176
0
90
50
176
0
90
3
176
0
62
5
420
255
176
0
290
0
176
1
90
50
176
0
90
50
176
0
90
50
176
0
290
0
176
1
90
50
176
0
62
256
176
0
40
1.0
176
0
90
2
176
0
1
strokes_ogs.tif
176
0
290
0
176
1
40
1.0
176
0
40
1.0
176
0
1001
ACAD
1000
AcDbSavedByObjectVersion
1070
0
0
VISUALSTYLE
5
248
102
{ACAD_REACTORS
330
23A
102
}
330
23A
100
AcDbVisualStyle
2
Linepattern
70
14
177
3
291
1
70
58
90
2
176
1
90
2
176
1
90
0
176
1
90
0
176
1
40
0.6
176
1
40
30.0
176
1
62
7
420
16777215
176
1
90
1
176
1
90
4
176
1
62
7
176
1
62
257
176
1
90
7
176
1
90
7
176
1
40
1.0
176
1
90
8
176
1
62
7
176
1
40
1.0
176
1
90
1
176
1
90
6
176
1
90
2
176
1
62
7
176
1
90
5
176
1
90
0
176
1
90
0
176
1
290
0
176
1
90
1
176
1
40
0.0
176
1
90
0
176
1
290
0
176
1
290
1
176
1
290
1
176
1
290
0
176
1
290
0
176
1
290
0
176
1
290
0
176
1
290
0
176
1
290
0
176
1
90
50
176
1
40
0.0
176
1
40
1.0
176
1
90
0
176
1
62
18
176
1
90
50
176
1
90
3
176
1
62
5
420
255
176
1
290
0
176
1
90
50
176
1
90
50
176
1
90
50
176
1
290
0
176
1
90
50
176
1
62
256
176
0
40
1.0
176
0
90
2
176
1
1
strokes_ogs.tif
176
1
290
0
176
1
40
1.0
176
1
40
1.0
176
1
1001
ACAD
1000
AcDbSavedByObjectVersion
1070
0
0
VISUALSTYLE
5
251
102
{ACAD_REACTORS
330
23A
102
}
330
23A
100
AcDbVisualStyle
2
OverhangOff
70
21
177
3
291
1
70
58
90
2
176
0
90
2
176
0
90
0
176
0
90
0
176
0
40
0.6
176
0
40
30.0
176
0
62
7
420
16777215
176
0
90
1
176
0
90
4
176
0
62
7
176
0
62
257
176
0
90
1
176
0
90
1
176
0
40
1.0
176
0
90
9
176
2
62
7
176
0
40
1.0
176
0
90
1
176
0
90
6
176
0
90
2
176
0
62
7
176
0
90
5
176
0
90
0
176
0
90
0
176
0
290
0
176
0
90
1
176
0
40
0.0
176
0
90
0
176
0
290
0
176
1
290
1
176
1
290
1
176
1
290
0
176
1
290
0
176
1
290
0
176
1
290
0
176
1
290
0
176
1
290
0
176
1
90
50
176
0
40
0.0
176
0
40
1.0
176
0
90
0
176
0
62
18
176
0
90
50
176
0
90
3
176
0
62
5
420
255
176
0
290
0
176
1
90
50
176
0
90
50
176
0
90
50
176
0
290
0
176
1
90
50
176
0
62
256
176
0
40
1.0
176
0
90
2
176
0
1
strokes_ogs.tif
176
0
290
0
176
1
40
1.0
176
0
40
1.0
176
0
1001
ACAD
1000
AcDbSavedByObjectVersion
1070
0
0
VISUALSTYLE
5
244
102
{ACAD_REACTORS
330
23A
102
}
330
23A
100
AcDbVisualStyle
2
Realistic
70
8
177
3
291
0
70
58
90
2
176
1
90
3
176
1
90
0
176
1
90
2
176
1
40
0.6
176
1
40
30.0
176
1
62
7
420
16777215
176
1
90
0
176
1
90
0
176
1
62
7
176
1
62
257
176
1
90
1
176
1
90
1
176
1
40
1.0
176
1
90
8
176
1
62
257
176
1
40
1.0
176
1
90
1
176
1
90
6
176
1
90
2
176
1
62
7
176
1
90
3
176
1
90
0
176
1
90
0
176
1
290
0
176
1
90
13
176
1
40
0.0
176
1
90
0
176
1
290
0
176
1
290
1
176
1
290
1
176
1
290
0
176
1
290
0
176
1
290
0
176
1
290
0
176
1
290
0
176
1
290
0
176
1
90
50
176
1
40
0.0
176
1
40
1.0
176
1
90
0
176
1
62
18
176
1
90
50
176
1
90
3
176
1
62
5
420
255
176
1
290
0
176
1
90
50
176
1
90
50
176
1
90
50
176
1
290
0
176
1
90
50
176
1
62
256
176
0
40
1.0
176
0
90
2
176
1
1
strokes_ogs.tif
176
1
290
0
176
1
40
1.0
176
1
40
1.0
176
1
1001
ACAD
1000
AcDbSavedByObjectVersion
1070
0
0
VISUALSTYLE
5
24F
102
{ACAD_REACTORS
330
23A
102
}
330
23A
100
AcDbVisualStyle
2
Shaded
70
27
177
3
291
0
70
58
90
2
176
1
90
2
176
1
90
1
176
1
90
2
176
1
40
0.6
176
1
40
30.0
176
1
62
7
420
16777215
176
1
90
0
176
1
90
4
176
1
62
7
176
1
62
257
176
1
90
1
176
1
90
1
176
1
40
1.0
176
1
90
8
176
1
62
257
176
1
40
1.0
176
1
90
1
176
1
90
6
176
1
90
2
176
1
62
8
420
7895160
176
1
90
3
176
1
90
0
176
1
90
0
176
1
290
0
176
1
90
5
176
1
40
0.0
176
1
90
0
176
1
290
0
176
1
290
1
176
1
290
1
176
1
290
0
176
1
290
0
176
1
290
0
176
1
290
0
176
1
290
0
176
1
290
0
176
1
90
50
176
1
40
0.0
176
1
40
1.0
176
1
90
0
176
1
62
18
176
1
90
50
176
1
90
3
176
1
62
5
420
255
176
1
290
0
176
1
90
50
176
1
90
50
176
1
90
50
176
1
290
0
176
1
90
50
176
1
62
256
176
0
40
1.0
176
0
90
2
176
1
1
strokes_ogs.tif
176
1
290
0
176
1
40
1.0
176
1
40
1.0
176
1
1001
ACAD
1000
AcDbSavedByObjectVersion
1070
0
0
VISUALSTYLE
5
24E
102
{ACAD_REACTORS
330
23A
102
}
330
23A
100
AcDbVisualStyle
2
Shaded with edges
70
26
177
3
291
0
70
58
90
2
176
1
90
2
176
1
90
1
176
1
90
2
176
1
40
0.6
176
1
40
30.0
176
1
62
7
420
16777215
176
1
90
1
176
1
90
10
176
1
62
7
176
1
62
257
176
1
90
2
176
1
90
1
176
1
40
1.0
176
1
90
8
176
1
62
257
176
1
40
1.0
176
1
90
1
176
1
90
6
176
1
90
2
176
1
62
7
176
1
90
3
176
1
90
0
176
1
90
0
176
1
290
0
176
1
90
5
176
1
40
0.0
176
1
90
0
176
1
290
0
176
1
290
1
176
1
290
1
176
1
290
0
176
1
290
0
176
1
290
0
176
1
290
0
176
1
290
0
176
1
290
0
176
1
90
50
176
1
40
0.0
176
1
40
1.0
176
1
90
0
176
1
62
18
176
1
90
50
176
1
90
3
176
1
62
5
420
255
176
1
290
0
176
1
90
50
176
1
90
50
176
1
90
50
176
1
290
0
176
1
90
50
176
1
62
256
176
0
40
1.0
176
0
90
2
176
1
1
strokes_ogs.tif
176
1
290
0
176
1
40
1.0
176
1
40
1.0
176
1
1001
ACAD
1000
AcDbSavedByObjectVersion
1070
0
0
VISUALSTYLE
5
24B
102
{ACAD_REACTORS
330
23A
102
}
330
23A
100
AcDbVisualStyle
2
Shades of Gray
70
23
177
3
291
0
70
58
90
2
176
1
90
2
176
1
90
3
176
1
90
0
176
1
40
0.6
176
1
40
30.0
176
1
62
7
420
16777215
176
1
90
2
176
1
90
2
176
1
62
7
176
1
62
7
176
1
90
1
176
1
90
1
176
1
40
40.0
176
1
90
8
176
1
62
7
176
1
40
1.0
176
1
90
1
176
1
90
6
176
1
90
2
176
1
62
7
176
1
90
3
176
1
90
0
176
1
90
0
176
1
290
0
176
1
90
1
176
1
40
0.0
176
1
90
0
176
1
290
0
176
1
290
1
176
1
290
1
176
1
290
0
176
1
290
0
176
1
290
0
176
1
290
0
176
1
290
0
176
1
290
0
176
1
90
50
176
1
40
0.0
176
1
40
1.0
176
1
90
0
176
1
62
18
176
1
90
50
176
1
90
3
176
1
62
5
420
255
176
1
290
0
176
1
90
50
176
1
90
50
176
1
90
50
176
1
290
0
176
1
90
50
176
1
62
256
176
0
40
1.0
176
0
90
2
176
1
1
strokes_ogs.tif
176
1
290
0
176
1
40
1.0
176
1
40
1.0
176
1
1001
ACAD
1000
AcDbSavedByObjectVersion
1070
0
0
VISUALSTYLE
5
24C
102
{ACAD_REACTORS
330
23A
102
}
330
23A
100
AcDbVisualStyle
2
Sketchy
70
24
177
3
291
0
70
58
90
1
176
1
90
2
176
1
90
2
176
1
90
0
176
1
40
0.6
176
1
40
30.0
176
1
62
7
420
16777215
176
1
90
2
176
1
90
2
176
1
62
7
176
1
62
7
176
1
90
1
176
1
90
1
176
1
40
40.0
176
1
90
11
176
1
62
7
176
1
40
1.0
176
1
90
1
176
1
90
6
176
1
90
2
176
1
62
7
176
1
90
6
176
1
90
0
176
1
90
0
176
1
290
0
176
1
90
1
176
1
40
0.0
176
1
90
0
176
1
290
0
176
1
290
1
176
1
290
1
176
1
290
0
176
1
290
0
176
1
290
0
176
1
290
0
176
1
290
0
176
1
290
0
176
1
90
50
176
1
40
0.0
176
1
40
1.0
176
1
90
0
176
1
62
18
176
1
90
50
176
1
90
3
176
1
62
5
420
255
176
1
290
0
176
1
90
50
176
1
90
50
176
1
90
50
176
1
290
0
176
1
90
50
176
1
62
256
176
0
40
1.0
176
0
90
2
176
1
1
strokes_ogs.tif
176
1
290
0
176
1
40
1.0
176
1
40
1.0
176
1
1001
ACAD
1000
AcDbSavedByObjectVersion
1070
0
0
VISUALSTYLE
5
247
102
{ACAD_REACTORS
330
23A
102
}
330
23A
100
AcDbVisualStyle
2
Thicken
70
13
177
3
291
1
70
58
90
2
176
1
90
2
176
1
90
0
176
1
90
0
176
1
40
0.6
176
1
40
30.0
176
1
62
7
420
16777215
176
1
90
1
176
1
90
4
176
1
62
7
176
1
62
257
176
1
90
1
176
1
90
1
176
1
40
1.0
176
1
90
12
176
1
62
7
176
1
40
1.0
176
1
90
1
176
1
90
6
176
1
90
2
176
1
62
7
176
1
90
5
176
1
90
0
176
1
90
0
176
1
290
0
176
1
90
1
176
1
40
0.0
176
1
90
0
176
1
290
0
176
1
290
1
176
1
290
1
176
1
290
0
176
1
290
0
176
1
290
0
176
1
290
0
176
1
290
0
176
1
290
0
176
1
90
50
176
1
40
0.0
176
1
40
1.0
176
1
90
0
176
1
62
18
176
1
90
50
176
1
90
3
176
1
62
5
420
255
176
1
290
0
176
1
90
50
176
1
90
50
176
1
90
50
176
1
290
0
176
1
90
50
176
1
62
256
176
0
40
1.0
176
0
90
2
176
1
1
strokes_ogs.tif
176
1
290
0
176
1
40
1.0
176
1
40
1.0
176
1
1001
ACAD
1000
AcDbSavedByObjectVersion
1070
0
0
VISUALSTYLE
5
241
102
{ACAD_REACTORS
330
23A
102
}
330
23A
100
AcDbVisualStyle
2
Wireframe
70
5
177
3
291
0
70
58
90
0
176
1
90
2
176
1
90
0
176
1
90
0
176
1
40
0.6
176
1
40
30.0
176
1
62
7
420
16777215
176
1
90
1
176
1
90
4
176
1
62
7
176
1
62
257
176
1
90
1
176
1
90
1
176
1
40
1.0
176
1
90
0
176
1
62
257
176
1
40
1.0
176
1
90
1
176
1
90
6
176
1
90
2
176
1
62
7
176
1
90
3
176
1
90
0
176
1
90
0
176
1
290
0
176
1
90
1
176
1
40
0.0
176
1
90
0
176
1
290
0
176
1
290
1
176
1
290
1
176
1
290
0
176
1
290
0
176
1
290
0
176
1
290
0
176
1
290
0
176
1
290
0
176
1
90
50
176
1
40
0.0
176
1
40
1.0
176
1
90
0
176
1
62
18
176
1
90
50
176
1
90
3
176
1
62
5
420
255
176
1
290
0
176
1
90
50
176
1
90
50
176
1
90
50
176
1
290
0
176
1
90
50
176
1
62
256
176
0
40
1.0
176
0
90
2
176
1
1
strokes_ogs.tif
176
1
290
0
176
1
40
1.0
176
1
40
1.0
176
1
1001
ACAD
1000
AcDbSavedByObjectVersion
1070
0
0
VISUALSTYLE
5
24D
102
{ACAD_REACTORS
330
23A
102
}
330
23A
100
AcDbVisualStyle
2
X-Ray
70
25
177
3
291
0
70
58
90
2
176
1
90
2
176
1
90
1
176
1
90
1
176
1
40
0.5
176
1
40
30.0
176
1
62
7
420
16777215
176
1
90
1
176
1
90
0
176
1
62
7
176
1
62
257
176
1
90
1
176
1
90
1
176
1
40
1.0
176
1
90
8
176
1
62
7
176
1
40
1.0
176
1
90
1
176
1
90
6
176
1
90
2
176
1
62
7
176
1
90
3
176
1
90
0
176
1
90
0
176
1
290
0
176
1
90
13
176
1
40
0.0
176
1
90
0
176
1
290
0
176
1
290
1
176
1
290
1
176
1
290
0
176
1
290
0
176
1
290
0
176
1
290
0
176
1
290
0
176
1
290
0
176
1
90
50
176
1
40
0.0
176
1
40
1.0
176
1
90
0
176
1
62
18
176
1
90
50
176
1
90
3
176
1
62
5
420
255
176
1
290
0
176
1
90
50
176
1
90
50
176
1
90
50
176
1
290
0
176
1
90
50
176
1
62
256
176
0
40
1.0
176
0
90
2
176
1
1
strokes_ogs.tif
176
1
290
0
176
1
40
1.0
176
1
40
1.0
176
1
1001
ACAD
1000
AcDbSavedByObjectVersion
1070
0
0
DICTIONARYVAR
5
2A3
102
{ACAD_REACTORS
330
29D
102
}
330
29D
100
DictionaryVariables
280
0
1
1:1
0
DICTIONARYVAR
5
29F
102
{ACAD_REACTORS
330
29D
102
}
330
29D
100
DictionaryVariables
280
0
1
STANDARD
0
DICTIONARYVAR
5
29E
102
{ACAD_REACTORS
330
29D
102
}
330
29D
100
DictionaryVariables
280
0
1
STANDARD
0
DICTIONARYVAR
5
2A0
102
{ACAD_REACTORS
330
29D
102
}
330
29D
100
DictionaryVariables
280
0
1
Imperial24
0
DICTIONARYVAR
5
2A1
102
{ACAD_REACTORS
330
29D
102
}
330
29D
100
DictionaryVariables
280
0
1
Imperial24
0
DICTIONARYVAR
5
2A5
102
{ACAD_REACTORS
330
29D
102
}
330
29D
100
DictionaryVariables
280
0
1
1
0
DICTIONARYVAR
5
2A6
102
{ACAD_REACTORS
330
29D
102
}
330
29D
100
DictionaryVariables
280
0
1
15
0
DICTIONARYVAR
5
2A4
102
{ACAD_REACTORS
330
29D
102
}
330
29D
100
DictionaryVariables
280
0
1
0
0
DICTIONARYVAR
5
2A2
102
{ACAD_REACTORS
330
29D
102
}
330
29D
100
DictionaryVariables
280
0
1
0
0
DICTIONARY
5
22B
330
22A
100
AcDbDictionary
280
1
281
1
3
BUMPTILE
360
22D
3
DIFFUSETILE
360
22C
3
OPACITYTILE
360
230
3
REFLECTIONTILE
360
22F
3
REFRACTIONTILE
360
231
3
SPECULARTILE
360
22E
0
DICTIONARY
5
223
330
222
100
AcDbDictionary
280
1
281
1
3
BUMPTILE
360
225
3
DIFFUSETILE
360
224
3
OPACITYTILE
360
228
3
REFLECTIONTILE
360
227
3
REFRACTIONTILE
360
229
3
SPECULARTILE
360
226
0
DICTIONARY
5
233
330
232
100
AcDbDictionary
280
1
281
1
3
BUMPTILE
360
235
3
DIFFUSETILE
360
234
3
OPACITYTILE
360
238
3
REFLECTIONTILE
360
237
3
REFRACTIONTILE
360
239
3
SPECULARTILE
360
236
0
DICTIONARY
5
2A7
330
275
100
AcDbDictionary
280
1
281
1
3
ACAD_ROUNDTRIP_2008_TABLESTYLE_CELLSTYLEMAP
360
1056
0
XRECORD
5
22D
102
{ACAD_REACTORS
330
22B
102
}
330
22B
100
AcDbXrecord
280
1
270
1
271
1
0
XRECORD
5
22C
102
{ACAD_REACTORS
330
22B
102
}
330
22B
100
AcDbXrecord
280
1
270
1
271
1
0
XRECORD
5
230
102
{ACAD_REACTORS
330
22B
102
}
330
22B
100
AcDbXrecord
280
1
270
1
271
1
0
XRECORD
5
22F
102
{ACAD_REACTORS
330
22B
102
}
330
22B
100
AcDbXrecord
280
1
270
1
271
1
0
XRECORD
5
231
102
{ACAD_REACTORS
330
22B
102
}
330
22B
100
AcDbXrecord
280
1
270
1
271
1
0
XRECORD
5
22E
102
{ACAD_REACTORS
330
22B
102
}
330
22B
100
AcDbXrecord
280
1
270
1
271
1
0
XRECORD
5
225
102
{ACAD_REACTORS
330
223
102
}
330
223
100
AcDbXrecord
280
1
270
1
271
1
0
XRECORD
5
224
102
{ACAD_REACTORS
330
223
102
}
330
223
100
AcDbXrecord
280
1
270
1
271
1
0
XRECORD
5
228
102
{ACAD_REACTORS
330
223
102
}
330
223
100
AcDbXrecord
280
1
270
1
271
1
0
XRECORD
5
227
102
{ACAD_REACTORS
330
223
102
}
330
223
100
AcDbXrecord
280
1
270
1
271
1
0
XRECORD
5
229
102
{ACAD_REACTORS
330
223
102
}
330
223
100
AcDbXrecord
280
1
270
1
271
1
0
XRECORD
5
226
102
{ACAD_REACTORS
330
223
102
}
330
223
100
AcDbXrecord
280
1
270
1
271
1
0
XRECORD
5
235
102
{ACAD_REACTORS
330
233
102
}
330
233
100
AcDbXrecord
280
1
270
1
271
1
0
XRECORD
5
234
102
{ACAD_REACTORS
330
233
102
}
330
233
100
AcDbXrecord
280
1
270
1
271
1
0
XRECORD
5
238
102
{ACAD_REACTORS
330
233
102
}
330
233
100
AcDbXrecord
280
1
270
1
271
1
0
XRECORD
5
237
102
{ACAD_REACTORS
330
233
102
}
330
233
100
AcDbXrecord
280
1
270
1
271
1
0
XRECORD
5
239
102
{ACAD_REACTORS
330
233
102
}
330
233
100
AcDbXrecord
280
1
270
1
271
1
0
XRECORD
5
236
102
{ACAD_REACTORS
330
233
102
}
330
233
100
AcDbXrecord
280
1
270
1
271
1
0
CELLSTYLEMAP
5
1056
102
{ACAD_REACTORS
330
2A7
102
}
330
2A7
100
AcDbCellStyleMap
90
3
300
CELLSTYLE
1
TABLEFORMAT_BEGIN
90
5
170
1
91
0
92
32768
62
257
93
1
300
CONTENTFORMAT
1
CONTENTFORMAT_BEGIN
90
0
91
0
92
512
93
0
300

40
0.0
140
1.0
94
5
62
0
340
266
144
0.25
309
CONTENTFORMAT_END
171
1
301
MARGIN
1
CELLMARGIN_BEGIN
40
0.06
40
0.06
40
0.06
40
0.06
40
0.18
40
0.18
309
CELLMARGIN_END
94
6
95
1
302
GRIDFORMAT
1
GRIDFORMAT_BEGIN
90
0
91
1
62
0
92
-2
340
0
93
0
40
0.045
309
GRIDFORMAT_END
95
2
302
GRIDFORMAT
1
GRIDFORMAT_BEGIN
90
0
91
1
62
0
92
-2
340
0
93
0
40
0.045
309
GRIDFORMAT_END
95
4
302
GRIDFORMAT
1
GRIDFORMAT_BEGIN
90
0
91
1
62
0
92
-2
340
0
93
0
40
0.045
309
GRIDFORMAT_END
95
8
302
GRIDFORMAT
1
GRIDFORMAT_BEGIN
90
0
91
1
62
0
92
-2
340
0
93
0
40
0.045
309
GRIDFORMAT_END
95
16
302
GRIDFORMAT
1
GRIDFORMAT_BEGIN
90
0
91
1
62
0
92
-2
340
0
93
0
40
0.045
309
GRIDFORMAT_END
95
32
302
GRIDFORMAT
1
GRIDFORMAT_BEGIN
90
0
91
1
62
0
92
-2
340
0
93
0
40
0.045
309
GRIDFORMAT_END
309
TABLEFORMAT_END
1
CELLSTYLE_BEGIN
90
1
91
1
300
_TITLE
309
CELLSTYLE_END
300
CELLSTYLE
1
TABLEFORMAT_BEGIN
90
5
170
1
91
0
92
0
62
257
93
1
300
CONTENTFORMAT
1
CONTENTFORMAT_BEGIN
90
0
91
0
92
512
93
0
300

40
0.0
140
1.0
94
5
62
0
340
266
144
0.18
309
CONTENTFORMAT_END
171
1
301
MARGIN
1
CELLMARGIN_BEGIN
40
0.06
40
0.06
40
0.06
40
0.06
40
0.18
40
0.18
309
CELLMARGIN_END
94
6
95
1
302
GRIDFORMAT
1
GRIDFORMAT_BEGIN
90
0
91
1
62
0
92
-2
340
0
93
0
40
0.045
309
GRIDFORMAT_END
95
2
302
GRIDFORMAT
1
GRIDFORMAT_BEGIN
90
0
91
1
62
0
92
-2
340
0
93
0
40
0.045
309
GRIDFORMAT_END
95
4
302
GRIDFORMAT
1
GRIDFORMAT_BEGIN
90
0
91
1
62
0
92
-2
340
0
93
0
40
0.045
309
GRIDFORMAT_END
95
8
302
GRIDFORMAT
1
GRIDFORMAT_BEGIN
90
0
91
1
62
0
92
-2
340
0
93
0
40
0.045
309
GRIDFORMAT_END
95
16
302
GRIDFORMAT
1
GRIDFORMAT_BEGIN
90
0
91
1
62
0
92
-2
340
0
93
0
40
0.045
309
GRIDFORMAT_END
95
32
302
GRIDFORMAT
1
GRIDFORMAT_BEGIN
90
0
91
1
62
0
92
-2
340
0
93
0
40
0.045
309
GRIDFORMAT_END
309
TABLEFORMAT_END
1
CELLSTYLE_BEGIN
90
2
91
1
300
_HEADER
309
CELLSTYLE_END
300
CELLSTYLE
1
TABLEFORMAT_BEGIN
90
5
170
1
91
0
92
0
62
257
93
1
300
CONTENTFORMAT
1
CONTENTFORMAT_BEGIN
90
0
91
0
92
512
93
0
300

40
0.0
140
1.0
94
2
62
0
340
266
144
0.18
309
CONTENTFORMAT_END
171
1
301
MARGIN
1
CELLMARGIN_BEGIN
40
0.06
40
0.06
40
0.06
40
0.06
40
0.18
40
0.18
309
CELLMARGIN_END
94
6
95
1
302
GRIDFORMAT
1
GRIDFORMAT_BEGIN
90
0
91
1
62
0
92
-2
340
0
93
0
40
0.045
309
GRIDFORMAT_END
95
2
302
GRIDFORMAT
1
GRIDFORMAT_BEGIN
90
0
91
1
62
0
92
-2
340
0
93
0
40
0.045
309
GRIDFORMAT_END
95
4
302
GRIDFORMAT
1
GRIDFORMAT_BEGIN
90
0
91
1
62
0
92
-2
340
0
93
0
40
0.045
309
GRIDFORMAT_END
95
8
302
GRIDFORMAT
1
GRIDFORMAT_BEGIN
90
0
91
1
62
0
92
-2
340
0
93
0
40
0.045
309
GRIDFORMAT_END
95
16
302
GRIDFORMAT
1
GRIDFORMAT_BEGIN
90
0
91
1
62
0
92
-2
340
0
93
0
40
0.045
309
GRIDFORMAT_END
95
32
302
GRIDFORMAT
1
GRIDFORMAT_BEGIN
90
0
91
1
62
0
92
-2
340
0
93
0
40
0.045
309
GRIDFORMAT_END
309
TABLEFORMAT_END
1
CELLSTYLE_BEGIN
90
3
91
2
300
_DATA
309
CELLSTYLE_END
0
ENDSEC
0
SECTION
2
ACDSDATA
70
2
71
2
0
ACDSSCHEMA
90
0
1
AcDb_Thumbnail_Schema
2
AcDbDs::ID
280
10
91
8
2
Thumbnail_Data
280
15
91
0
101
ACDSRECORD
95
0
90
1
2
AcDbDs::TreatedAsObjectData
280
1
291
1
101
ACDSRECORD
95
0
90
2
2
AcDbDs::Legacy
280
1
291
1
101
ACDSRECORD
1
AcDbDs::ID
90
3
2
AcDs:Indexable
280
1
291
1
101
ACDSRECORD
1
AcDbDs::ID
90
4
2
AcDbDs::HandleAttribute
280
7
282
1
0
ACDSSCHEMA
90
1
1
AcDbDs::TreatedAsObjectDataSchema
2
AcDbDs::TreatedAsObjectData
280
1
91
0
0
ACDSSCHEMA
90
2
1
AcDbDs::LegacySchema
2
AcDbDs::Legacy
280
1
91
0
0
ACDSSCHEMA
90
3
1
AcDbDs::IndexedPropertySchema
2
AcDs:Indexable
280
1
91
0
0
ACDSSCHEMA
90
4
1
AcDbDs::HandleAttributeSchema
2
AcDbDs::HandleAttribute
280
7
91
1
284
1
0
ACDSRECORD
90
0
2
AcDbDs::ID
280
10
320
284
2
Thumbnail_Data
280
15
94
1130
310
89504E470D0A1A0A0000000D4948445200000100000000BB0803000000BDD6B05600000300504C54452128300000000000000000000000000000000000000000000000000000000000000000330000660000990000CC0000FF0033000033330033660033990033CC0033FF0066000066330066660066990066CC0066FF0099
310
000099330099660099990099CC0099FF00CC0000CC3300CC6600CC9900CCCC00CCFF00FF0000FF3300FF6600FF9900FFCC00FFFF3300003300333300663300993300CC3300FF3333003333333333663333993333CC3333FF3366003366333366663366993366CC3366FF3399003399333399663399993399CC3399FF33CC00
310
33CC3333CC6633CC9933CCCC33CCFF33FF0033FF3333FF6633FF9933FFCC33FFFF6600006600336600666600996600CC6600FF6633006633336633666633996633CC6633FF6666006666336666666666996666CC6666FF6699006699336699666699996699CC6699FF66CC0066CC3366CC6666CC9966CCCC66CCFF66FF0066
310
FF3366FF6666FF9966FFCC66FFFF9900009900339900669900999900CC9900FF9933009933339933669933999933CC9933FF9966009966339966669966999966CC9966FF9999009999339999669999999999CC9999FF99CC0099CC3399CC6699CC9999CCCC99CCFF99FF0099FF3399FF6699FF9999FFCC99FFFFCC0000CC00
310
33CC0066CC0099CC00CCCC00FFCC3300CC3333CC3366CC3399CC33CCCC33FFCC6600CC6633CC6666CC6699CC66CCCC66FFCC9900CC9933CC9966CC9999CC99CCCC99FFCCCC00CCCC33CCCC66CCCC99CCCCCCCCCCFFCCFF00CCFF33CCFF66CCFF99CCFFCCCCFFFFFF0000FF0033FF0066FF0099FF00CCFF00FFFF3300FF3333
310
FF3366FF3399FF33CCFF33FFFF6600FF6633FF6666FF6699FF66CCFF66FFFF9900FF9933FF9966FF9999FF99CCFF99FFFFCC00FFCC33FFCC66FFCC99FFCCCCFFCCFFFFFF00FFFF33FFFF66FFFF99FFFFCCFFFFFF0000000D0D0D1A1A1A2828283535354343435050505D5D5D6B6B6B787878868686939393A1A1A1AEAEAEBB
310
BBBBC9C9C9D6D6D6E4E4E4F1F1F1FFFFFF000000000000000000000000000000000000000000000000000000000000544354A80000004549444154789CEDC13101000000C2A0F54F6D094FA000000000000000000000000000000000000000000000000000000000000000000000000000000000000000000000E062BBBB00
310
01006808E50000000049454E44AE4260824BBACA0DB465ABDB4063B2B20534072BDA4047AC9A0DF4A42AD9407A015D99E20BA8D8407A019D89143066171752C0D0E513E84D54AE01050C5E7F7B0A18BA7C020A18BA7C02F105C4FF0C2920FE4024FE484C01F1C7E2F11723AEC65C8EBA1E372071982F7D48A87EFCC5989C41
310
49A3B22F9BB861E9DF3E73F299D3F25FC9D901000000000000000000000000000000000000000000E0344F3123803F1ED9B2780000000049454E44AE426082FADAD667F149BFC5000000000000000000000000000000000000000070A90F51C3A687E5D1137C0000000049454E44AE426082
0
ENDSEC
0
EOF
